<svg width="55" height="60" viewBox="0 0 55 60" fill="none" xmlns="http://www.w3.org/2000/svg">
<mask id="mask0_200_30" style="mask-type:luminance" maskUnits="userSpaceOnUse" x="0" y="0" width="55" height="60">
<path d="M0 0H54.5786V60H0V0Z" fill="white"/>
</mask>
<g mask="url(#mask0_200_30)">
<path d="M54.5705 -0.00012207H0.00830078L4.82253 53.6841L27.2894 59.9999L49.7562 53.6841L54.5705 -0.00012207Z" fill="#E5E5E5"/>
</g>
<path d="M27.29 4.73767V55.106L45.2634 50.0533L49.2754 4.73767H27.29Z" fill="white"/>
<path d="M41.8934 12.6322H27.29V18.9479H35.1535L34.672 25.2637H27.29V31.5796H34.3511L33.8696 38.6849L27.29 40.8953V47.5269L39.9677 43.4216L41.091 25.2637L41.8934 12.6322Z" fill="#5E17EB"/>
<path d="M27.2898 12.6322V18.9479H13.0074L12.5259 12.6322H27.2898ZM19.9079 25.2637L20.2288 31.5796H27.2898V25.2637H19.9079ZM20.5497 34.7373H14.1307L14.6122 43.4216L27.2898 47.5269V40.8953L20.7103 38.6849L20.5497 34.7373Z" fill="#5E17EB"/>
</svg>
