<svg width="134" height="37" viewBox="0 0 134 37" fill="none" xmlns="http://www.w3.org/2000/svg">
<g clip-path="url(#clip0_202_60)">
<path d="M32.3911 0.0307617V28.4724L36.0459 28.4863V14.9487H44.876V11.3656H36.0459V3.61385H47.5404V0.0307617H32.3911ZM54.1386 5.80274C55.4638 5.80274 56.5239 4.72921 56.5239 3.41866C56.5239 2.10812 55.4498 1.03458 54.1386 1.03458C52.8134 1.03458 51.7532 2.10812 51.7532 3.41866C51.7532 4.72921 52.8273 5.80274 54.1386 5.80274ZM52.2833 9.38583V28.4724H55.9381V9.38583H52.2833Z" fill="white"/>
<path fill-rule="evenodd" clip-rule="evenodd" d="M69.5111 8.82812C64.6427 8.82812 61.2529 12.941 61.2529 17.8207C61.2529 22.7004 64.6427 26.8133 69.5111 26.8133C71.743 26.8133 73.5704 25.9489 74.9096 24.5547V27.0782C74.9096 30.243 72.4266 32.878 69.1763 32.878C68.0045 32.878 66.8467 32.4319 65.9261 31.7906L64.0847 34.9693C65.5494 35.9174 67.2931 36.4611 69.1624 36.4611C74.3516 36.4611 78.5504 32.2646 78.5504 27.0782V9.3858H74.9096V11.0867C73.5704 9.69253 71.743 8.82812 69.5111 8.82812ZM64.9217 17.8207C64.9217 14.7953 67.2373 12.4112 69.9156 12.4112C72.594 12.4112 74.9096 14.7953 74.9096 17.8207C74.9096 20.8461 72.594 23.2302 69.9156 23.2302C67.2373 23.2302 64.9217 20.8461 64.9217 17.8207Z" fill="white"/>
<path d="M91.7607 12.4112C89.5985 12.4112 87.8408 14.2516 87.8408 16.4126V28.4724H84.186V9.3858H87.8408V11.1286C88.915 9.7483 90.4913 8.82812 92.5558 8.82812C95.1225 8.82812 97.0894 10.0968 98.2333 12.0487C99.5027 10.1666 101.567 8.82812 104.064 8.82812C108.235 8.82812 110.83 12.1881 110.844 16.3429V28.4724H107.189V16.3986C107.189 14.2376 105.431 12.3973 103.269 12.3973C101.107 12.3973 99.3493 14.2376 99.3493 16.3986V28.4724H95.6945V16.3986C95.6805 14.2376 93.9229 12.4112 91.7607 12.4112Z" fill="white"/>
<path fill-rule="evenodd" clip-rule="evenodd" d="M130.345 11.5468C128.713 9.85983 126.481 8.82812 123.9 8.82812C118.46 8.82812 114.582 13.4429 114.582 18.9361C114.582 24.4292 118.446 29.044 123.9 29.044C126.481 29.044 128.713 27.9983 130.345 26.3253V28.4724H134V9.3858H130.345V11.5468ZM118.251 18.9361C118.251 15.2972 121.041 12.4112 124.305 12.4112C127.555 12.4112 130.359 15.2833 130.359 18.9361C130.359 22.5749 127.569 25.4609 124.305 25.4609C121.041 25.447 118.251 22.5749 118.251 18.9361Z" fill="white"/>
<path d="M12.2896 18.462C12.2896 15.0741 15.0376 12.3136 18.4413 12.3136C21.8311 12.3136 24.5931 15.0602 24.5931 18.462C24.5931 21.8499 21.845 24.6104 18.4413 24.6104C15.0516 24.6104 12.2896 21.8499 12.2896 18.462Z" fill="#1ABCFE"/>
<path d="M0 30.745C0 27.3571 2.74807 24.5966 6.15178 24.5966H12.3036V30.745C12.3036 34.1329 9.55549 36.8934 6.15178 36.8934C2.74807 36.8934 0 34.1468 0 30.745Z" fill="#0ACF83"/>
<path d="M12.2896 0.0307877V12.3137H18.4413C21.8311 12.3137 24.5931 9.5671 24.5931 6.16526C24.5931 2.77736 21.845 0.0168457 18.4413 0.0168457H12.2896V0.0307877Z" fill="#FF7262"/>
<path d="M0 6.17917C0 9.56707 2.74807 12.3276 6.15178 12.3276H12.3036V0.0307617H6.15178C2.74807 0.0307617 0 2.77733 0 6.17917Z" fill="#F24E1E"/>
<path d="M0 18.462C0 21.8499 2.74807 24.6104 6.15178 24.6104H12.3036V12.3136H6.15178C2.74807 12.3136 0 15.0741 0 18.462Z" fill="#A259FF"/>
</g>
<defs>
<clipPath id="clip0_202_60">
<rect width="134" height="36.9102" fill="white"/>
</clipPath>
</defs>
</svg>
