<svg width="59" height="59" viewBox="0 0 59 59" fill="none" xmlns="http://www.w3.org/2000/svg">
<mask id="mask0_175_526" style="mask-type:luminance" maskUnits="userSpaceOnUse" x="4" y="1" width="51" height="57">
<path d="M4.66797 1.29736H54.346V57.7014H4.66797V1.29736Z" fill="white"/>
</mask>
<g mask="url(#mask0_175_526)">
<path d="M9.1776 52.0448L4.65381 1.32336H54.3599L49.8326 52.0377L29.4751 57.6767L9.1776 52.0448Z" fill="#E5E5E5"/>
</g>
<path d="M45.9551 48.8083L49.8254 5.47131H29.5068V53.3678L45.9551 48.8083Z" fill="white"/>
<path d="M29.4857 11.6915H13.9023L15.5812 30.5035H29.5069V24.2833H21.273L20.7039 17.9134H29.5069V11.6915H29.4857ZM29.5069 40.4184L29.4805 40.4254L22.5501 38.5553L22.1098 33.5942H15.8595L16.7316 43.3613L29.4787 46.8835L29.5069 46.8746V40.4184Z" fill="#5E17EB"/>
<path d="M29.4855 30.5035H37.1486L36.4439 38.5693L29.5031 40.4413V46.9133L42.2608 43.3788L43.9697 24.2797H29.5067L29.4855 30.5035ZM44.9244 13.361L45.0724 11.6915H29.4819V17.9116H44.5122L44.6356 16.5134L44.9244 13.361Z" fill="#5E17EB"/>
</svg>
