<svg width="53" height="53" viewBox="0 0 53 53" fill="none" xmlns="http://www.w3.org/2000/svg">
<mask id="mask0_175_633" style="mask-type:luminance" maskUnits="userSpaceOnUse" x="1" y="1" width="51" height="51">
<path d="M1.62305 1.62292H51.39V51.3899H1.62305V1.62292Z" fill="white"/>
</mask>
<g mask="url(#mask0_175_633)">
<path d="M1.62305 1.62292H51.39V51.3899H1.62305V1.62292Z" fill="white"/>
</g>
<path d="M34.1622 38.8746C35.1189 40.4285 36.1584 41.9173 38.3605 41.9173C40.2103 41.9173 41.1807 40.9981 41.1807 39.7262C41.1807 38.2041 40.177 37.6636 38.1422 36.7775L37.0266 36.3019C33.8068 34.9362 31.6656 33.2247 31.6656 29.6097C31.6656 26.278 34.2161 23.7427 38.2015 23.7427C41.0397 23.7427 43.0788 24.7256 44.5497 27.2996L41.0743 29.5212C40.3098 28.1554 39.4831 27.6176 38.2015 27.6176C36.8938 27.6176 36.0658 28.4429 36.0658 29.5212C36.0658 30.8538 36.8952 31.3931 38.8098 32.2183L39.9254 32.6939C43.7202 34.3099 45.8602 35.9605 45.8602 39.6709C45.8602 43.6689 42.7027 45.86 38.4642 45.86C34.3183 45.86 31.9641 43.7795 30.6536 41.204L34.1622 38.8746ZM18.1455 38.9879C18.845 40.2405 19.9081 41.204 21.437 41.204C22.8996 41.204 23.7415 40.6261 23.7415 38.3797V23.7413H28.3491V39.0876C28.3491 43.7421 25.6492 45.86 21.7065 45.86C18.1441 45.86 15.5728 43.4463 14.5249 41.204L18.1455 38.9879Z" fill="#5E17EB"/>
</svg>
