<svg width="54" height="60" viewBox="0 0 54 60" fill="none" xmlns="http://www.w3.org/2000/svg">
<path d="M24.5522 0.641001C26.0448 -0.211809 27.9478 -0.215523 29.403 0.641001L51.6866 13.3153C53.0801 14.106 54.0129 15.674 53.9999 17.2948V42.7074C54.0092 44.396 52.985 45.9979 51.5149 46.7734L29.3508 59.3895C29.2564 59.442 29.1607 59.4913 29.0632 59.5374C28.9658 59.5835 28.8669 59.6263 28.7664 59.6658C28.6662 59.7052 28.5646 59.7413 28.462 59.7739C28.3593 59.8065 28.2557 59.8357 28.1509 59.8614C28.0463 59.887 27.9411 59.9091 27.835 59.9277C27.7289 59.9465 27.6223 59.9615 27.5152 59.9728C27.4082 59.9843 27.3008 59.992 27.1932 59.9963C27.0857 60.0005 26.9781 60.0012 26.8705 59.9981C26.7627 59.9951 26.6555 59.9885 26.5482 59.9784C26.4411 59.9681 26.3343 59.9542 26.2281 59.9368C26.1218 59.9194 26.0162 59.8985 25.9113 59.874C25.8063 59.8495 25.7024 59.8217 25.5993 59.7901C25.4962 59.7587 25.3943 59.7238 25.2936 59.6854C25.1928 59.6471 25.0936 59.6056 24.9955 59.5605C24.8974 59.5156 24.801 59.4673 24.7063 59.4158C24.6114 59.3643 24.5184 59.3098 24.4272 59.252L17.7761 55.3743C17.3228 55.1013 16.8135 54.8848 16.4926 54.4425C16.7762 54.0585 17.2799 54.0095 17.6903 53.84C18.6157 53.5427 19.4627 53.0872 20.3135 52.6051C20.5281 52.4547 20.7911 52.5111 20.9963 52.6467L26.6679 55.9559C27.0728 56.1913 27.4832 55.8806 27.8303 55.6829L49.5932 43.2909C49.8619 43.1592 50.011 42.873 49.9888 42.5757V17.4076C50.0186 17.0689 49.8265 16.7601 49.5224 16.6227L27.4142 4.06136C27.3824 4.03924 27.3493 4.01965 27.3148 4.0026C27.2802 3.98555 27.2445 3.9712 27.2077 3.95955C27.1711 3.94806 27.1336 3.93928 27.0956 3.93338C27.0574 3.92747 27.0193 3.92443 26.9806 3.92426C26.9421 3.92426 26.904 3.92713 26.8658 3.93287C26.8277 3.93861 26.7904 3.94722 26.7535 3.9587C26.7167 3.97001 26.6809 3.9842 26.6463 4.00125C26.6116 4.01813 26.5785 4.03755 26.5467 4.0595L4.47019 16.6472C4.1718 16.7846 3.96646 17.0895 4.00378 17.4284V42.5963C3.97767 42.8938 4.13448 43.1743 4.40492 43.3022L10.3042 46.6625C11.4124 47.2647 12.7725 47.6036 13.9927 47.1612C14.0589 47.1361 14.124 47.1084 14.1883 47.0782C14.2524 47.0479 14.3153 47.0154 14.3771 46.9804C14.4388 46.9453 14.4992 46.908 14.5581 46.8685C14.617 46.8288 14.6743 46.7869 14.7302 46.7429C14.7859 46.699 14.84 46.6529 14.8922 46.6046C14.9445 46.5565 14.9949 46.5063 15.0435 46.4543C15.092 46.4023 15.1385 46.3484 15.183 46.2929C15.2275 46.2373 15.2699 46.1801 15.31 46.1214C15.3502 46.0624 15.388 46.0022 15.4237 45.9405C15.4593 45.8787 15.4926 45.8158 15.5236 45.7514C15.5545 45.6871 15.583 45.6218 15.6089 45.5552C15.6349 45.4889 15.6583 45.4215 15.6792 45.3533C15.7001 45.2849 15.7186 45.216 15.7343 45.1463C15.75 45.0767 15.7631 45.0065 15.7734 44.9359C15.784 44.8652 15.7917 44.7943 15.7969 44.723C15.8021 44.6518 15.8044 44.5804 15.8042 44.5089L15.8098 19.4916C15.7837 19.1207 16.1306 18.8139 16.487 18.8515H19.3228C19.696 18.8421 19.9889 19.2412 19.9385 19.6139L19.9328 44.7894C19.9348 47.0257 19.0242 49.4578 16.9739 50.5553C14.4479 51.8729 11.3247 51.5962 8.82836 50.3293L2.48523 46.7905C0.992625 46.0374 -0.0091414 44.411 6.2899e-05 42.7245V17.3117C0.000899646 17.2091 0.00508345 17.1064 0.0126143 17.0041C0.0201451 16.9018 0.0310229 16.7996 0.0452478 16.698C0.0594727 16.5964 0.0770445 16.4952 0.0979635 16.3948C0.118882 16.2943 0.143148 16.1947 0.170594 16.0957C0.198207 15.997 0.228832 15.899 0.262805 15.8023C0.296777 15.7056 0.333762 15.61 0.374093 15.5156C0.414258 15.4214 0.457602 15.3285 0.503958 15.237C0.550315 15.1457 0.599683 15.056 0.651897 14.9679C0.704111 14.8798 0.759337 14.7935 0.81724 14.7091C0.875311 14.6248 0.935892 14.5424 0.999319 14.4621C1.06274 14.3817 1.12868 14.3037 1.1973 14.2277C1.26574 14.1519 1.3367 14.0783 1.41017 14.0072C1.48347 13.9361 1.55911 13.8676 1.6371 13.8014C1.71491 13.7354 1.79491 13.6721 1.87708 13.6113C1.95908 13.5507 2.04309 13.4927 2.12911 13.4377C2.21496 13.3827 2.30248 13.3307 2.39185 13.2815L24.5522 0.641001ZM30.9777 18.2567C34.1997 18.0685 37.6493 18.1325 40.5485 19.7344C42.7928 20.9617 44.0373 23.5368 44.0783 26.0556C44.0148 26.3945 43.6641 26.5827 43.3433 26.5582C42.4104 26.5562 41.4738 26.5714 40.5373 26.5525C40.1398 26.5675 39.9104 26.1986 39.86 25.8447C39.5914 24.64 38.9402 23.4484 37.8171 22.8667C36.0933 21.9952 34.0932 22.0384 32.2127 22.0573C30.8396 22.1326 29.3639 22.2511 28.2015 23.0644C27.306 23.6819 27.0374 24.9468 27.3563 25.9295C27.6549 26.6504 28.4813 26.8819 29.1549 27.0965C33.0393 28.1205 37.1529 28.0378 40.9645 29.3686C42.541 29.9183 44.084 30.9876 44.625 32.6535C45.3302 34.8859 45.0223 37.5553 43.4495 39.3473C42.1735 40.8232 40.3152 41.6062 38.4589 42.0618C35.9907 42.6171 33.431 42.6303 30.9254 42.3817C28.569 42.1107 26.1176 41.4857 24.2985 39.8669C22.7426 38.504 21.9852 36.3807 22.0597 34.3326C22.0784 33.9862 22.4198 33.7452 22.75 33.7734H25.5486C25.9255 33.7471 26.2014 34.0746 26.2202 34.4322C26.3937 35.5618 26.821 36.7854 27.8134 37.4442C29.7275 38.6904 32.1287 38.6038 34.319 38.6396C36.1343 38.5585 38.1716 38.534 39.6548 37.3218C40.4384 36.631 40.6678 35.477 40.4571 34.4831C40.2275 33.6436 39.3377 33.2539 38.5915 32.9772C34.7575 31.7536 30.5971 32.1978 26.8004 30.8125C25.2594 30.2627 23.7687 29.2237 23.1772 27.6255C22.3509 25.3666 22.7296 22.5674 24.4702 20.8356C26.1492 19.1132 28.612 18.4487 30.944 18.2115L30.9777 18.2567Z" fill="white"/>
</svg>
