<svg width="62" height="60" viewBox="0 0 62 60" fill="none" xmlns="http://www.w3.org/2000/svg">
<g clip-path="url(#clip0_202_83)">
<path d="M10.9083 0.00622559H50.6917C56.7233 0.00622559 61.6 4.87802 61.6 10.9037V49.1088C61.6 55.1344 56.7233 60.0062 50.6917 60.0062H10.9083C4.87667 60.0062 0 55.1344 0 49.1088V10.9037C0 4.87802 4.87667 0.00622559 10.9083 0.00622559Z" fill="white"/>
<path d="M13.8599 42.0744V15.6952C13.8599 15.5158 13.9369 15.4132 14.1165 15.4132C14.5529 15.4132 14.9635 15.4132 15.5539 15.3876C16.1699 15.3619 16.8115 15.3619 17.5045 15.3363C18.1975 15.3107 18.9419 15.3107 19.7375 15.285C20.5332 15.2594 21.3032 15.2594 22.0732 15.2594C24.1779 15.2594 25.9232 15.5158 27.3605 16.0541C28.6439 16.4899 29.8245 17.2077 30.7999 18.1562C31.6212 18.9766 32.2629 19.9764 32.6735 21.0787C33.0585 22.1554 33.2639 23.2578 33.2639 24.4114C33.2639 26.616 32.7505 28.4362 31.7239 29.8718C30.6972 31.3074 29.2599 32.3841 27.5915 32.9993C25.8462 33.6402 23.9212 33.871 21.8165 33.871C21.2005 33.871 20.7899 33.871 20.5332 33.8453C20.2765 33.8197 19.9172 33.8197 19.4295 33.8197V42.0488C19.4552 42.2282 19.3269 42.382 19.1472 42.4077H14.1679C13.9625 42.4077 13.8599 42.3051 13.8599 42.0744ZM19.4552 20.3609V28.9745C19.8145 29.0002 20.1482 29.0258 20.4562 29.0258H21.8165C22.8175 29.0258 23.8185 28.872 24.7682 28.5644C25.5895 28.3336 26.3082 27.8466 26.8729 27.2057C27.4119 26.5648 27.6685 25.6932 27.6685 24.5652C27.6942 23.7705 27.4889 22.9758 27.0782 22.2836C26.6419 21.6171 26.0259 21.1044 25.2815 20.8224C24.3319 20.4378 23.3052 20.284 22.2529 20.3096C21.5855 20.3096 20.9952 20.3096 20.5075 20.3353C19.9942 20.3096 19.6349 20.3353 19.4552 20.3609ZM49.2799 27.4108C48.5099 27.0006 47.6885 26.7186 46.8159 26.5391C45.8662 26.334 44.9165 26.2059 43.9412 26.2059C43.4279 26.1802 42.8889 26.2571 42.4012 26.3853C42.0675 26.4622 41.7852 26.6417 41.6055 26.898C41.4772 27.1031 41.4002 27.3595 41.4002 27.5902C41.4002 27.8209 41.5029 28.0516 41.6569 28.2567C41.8879 28.5387 42.1959 28.7694 42.5295 28.9489C43.1199 29.2565 43.7359 29.5385 44.3519 29.7949C45.7379 30.2563 47.0725 30.8972 48.3045 31.6663C49.1515 32.2046 49.8445 32.9224 50.3322 33.7941C50.7429 34.6144 50.9482 35.5117 50.9225 36.4345C50.9482 37.6394 50.5889 38.8443 49.9215 39.8441C49.2029 40.8695 48.2019 41.6642 47.0469 42.1257C45.7892 42.664 44.2492 42.946 42.4012 42.946C41.2205 42.946 40.0655 42.8435 38.9105 42.6128C38.0122 42.4589 37.1139 42.177 36.2925 41.7924C36.1129 41.6899 35.9845 41.5104 36.0102 41.3053V36.8447C36.0102 36.7678 36.0359 36.6653 36.1129 36.614C36.1899 36.5627 36.2669 36.5884 36.3439 36.6396C37.3449 37.2292 38.3972 37.6394 39.5265 37.8958C40.5019 38.1521 41.5285 38.2803 42.5552 38.2803C43.5305 38.2803 44.2235 38.1521 44.6855 37.9214C45.0962 37.742 45.3785 37.3062 45.3785 36.8447C45.3785 36.4858 45.1732 36.1525 44.7625 35.8193C44.3519 35.486 43.5049 35.1015 42.2472 34.6144C40.9382 34.153 39.7319 33.5377 38.6025 32.7686C37.8069 32.2046 37.1395 31.4612 36.6519 30.5896C36.2412 29.7692 36.0359 28.872 36.0615 27.9747C36.0615 26.8724 36.3695 25.8213 36.9342 24.8728C37.5759 23.8474 38.5255 23.027 39.6292 22.5143C40.8355 21.8991 42.3499 21.6171 44.1722 21.6171C45.2245 21.6171 46.3025 21.694 47.3549 21.8478C48.1249 21.9503 48.8692 22.1554 49.5622 22.4374C49.6649 22.463 49.7675 22.5656 49.8189 22.6681C49.8445 22.7707 49.8702 22.8732 49.8702 22.9758V27.1544C49.8702 27.2569 49.8189 27.3595 49.7419 27.4108C49.5109 27.462 49.3825 27.462 49.2799 27.4108Z" fill="#5E17EB"/>
</g>
<defs>
<clipPath id="clip0_202_83">
<rect width="61.6" height="60" fill="white"/>
</clipPath>
</defs>
</svg>
