<svg width="69" height="76" viewBox="0 0 69 76" fill="none" xmlns="http://www.w3.org/2000/svg">
<path d="M68.2471 30.3138C68.2471 25.8049 62.6006 21.5319 53.9434 18.882C55.9413 10.0584 55.0534 3.03834 51.1408 0.790802C50.239 0.263601 49.1848 0.0138669 48.0333 0.0138669V3.10771C48.6714 3.10771 49.1848 3.23257 49.6148 3.46841C51.5016 4.55055 52.3203 8.67102 51.6819 13.9707C51.5295 15.2749 51.2798 16.6483 50.9745 18.0496C48.2551 17.3836 45.2862 16.8703 42.1647 16.5374C40.2918 13.9707 38.3495 11.64 36.3932 9.60056C40.916 5.39685 45.1615 3.09381 48.0472 3.09381V0C44.2317 0 39.2374 2.71924 34.1875 7.43625C29.1373 2.74697 24.1429 0.0554998 20.3277 0.0554998V3.14931C23.1995 3.14931 27.4586 5.43848 31.9815 9.61443C30.0391 11.6539 28.0968 13.9707 26.2516 16.5374C23.1161 16.8703 20.1472 17.3836 17.4281 18.0634C17.1088 16.6761 16.8731 15.3303 16.7065 14.0401C16.0547 8.74039 16.8591 4.61991 18.7322 3.52391C19.1483 3.27417 19.6893 3.16321 20.3277 3.16321V0.0693667C19.1622 0.0693667 18.1078 0.3191 17.1923 0.846301C13.2936 3.09381 12.4197 10.1 14.4313 18.8959C5.80192 21.5596 0.183105 25.8189 0.183105 30.3138C0.183105 34.8229 5.82965 39.096 14.4868 41.7457C12.4889 50.5695 13.3768 57.5893 17.2894 59.8369C18.1912 60.364 19.2454 60.6137 20.4109 60.6137C24.2261 60.6137 29.2207 57.8946 34.2706 53.1775C39.3205 57.867 44.3152 60.5585 48.1304 60.5585C49.2956 60.5585 50.3501 60.3088 51.2658 59.7814C55.1642 57.5338 56.0384 50.5276 54.0266 41.732C62.6282 39.082 68.2471 34.809 68.2471 30.3138ZM50.1838 21.0602C49.6703 22.85 49.0322 24.6949 48.3106 26.5401C47.742 25.4305 47.1454 24.3205 46.4933 23.2105C45.8552 22.1007 45.1751 21.0186 44.4954 19.9642C46.4654 20.2555 48.3661 20.6162 50.1838 21.0602ZM43.8294 35.8355C42.7473 37.7087 41.6376 39.4844 40.486 41.1354C38.4187 41.3157 36.324 41.4128 34.2151 41.4128C32.1201 41.4128 30.0252 41.3157 27.9721 41.1491C26.8205 39.4981 25.6966 37.7363 24.6145 35.8771C23.56 34.0598 22.603 32.2145 21.7287 30.3556C22.589 28.4964 23.56 26.6372 24.6008 24.8199C25.6829 22.9471 26.7926 21.1712 27.9442 19.5202C30.0115 19.3398 32.1062 19.2427 34.2151 19.2427C36.3101 19.2427 38.405 19.3398 40.4581 19.5063C41.6097 21.1573 42.7336 22.9192 43.8157 24.7784C44.8702 26.5957 45.8272 28.4409 46.7015 30.3001C45.8272 32.159 44.8702 34.0182 43.8294 35.8355ZM48.3106 34.0321C49.0389 35.8402 49.6779 37.6829 50.2253 39.5536C48.4077 39.9975 46.4933 40.3723 44.5094 40.6636C45.1891 39.5955 45.8688 38.4994 46.5073 37.3755C47.1454 36.2658 47.742 35.1418 48.3106 34.0321ZM34.2427 48.8353C32.9525 47.5032 31.6622 46.0187 30.386 44.3956C31.6346 44.4511 32.9109 44.4927 34.2011 44.4927C35.5053 44.4927 36.7956 44.4651 38.0582 44.3956C36.8673 45.9432 35.5936 47.4252 34.2427 48.8353ZM23.9208 40.6636C21.9509 40.3723 20.0501 40.0115 18.2328 39.5675C18.7459 37.7778 19.3843 35.9326 20.1056 34.0874C20.6746 35.1974 21.2712 36.3074 21.9229 37.417C22.575 38.527 23.2411 39.6091 23.9208 40.6636ZM34.1735 11.7926C35.4638 13.1244 36.754 14.6089 38.0303 16.2321C36.7816 16.1766 35.5053 16.135 34.2151 16.135C32.9109 16.135 31.6207 16.1628 30.3583 16.2321C31.5491 14.6846 32.8227 13.2026 34.1735 11.7926ZM23.9068 19.9642C23.2271 21.0324 22.5474 22.1284 21.9093 23.252C21.2712 24.362 20.6746 25.472 20.1056 26.5817C19.3773 24.7737 18.7384 22.931 18.1912 21.0602C20.0085 20.6301 21.9229 20.2555 23.9068 19.9642ZM11.3513 37.3339C6.44012 35.2389 3.26305 32.4922 3.26305 30.3138C3.26305 28.1356 6.44012 25.3749 11.3513 23.2939C12.5444 22.7805 13.8486 22.3227 15.1944 21.8926C15.9852 24.6118 17.0257 27.442 18.3159 30.3417C17.0396 33.2274 16.0128 36.0437 15.236 38.7492C13.8626 38.3189 12.5584 37.8473 11.3513 37.3339ZM18.8154 57.1593C16.9286 56.0773 16.1099 51.9568 16.7483 46.6569C16.901 45.353 17.1504 43.9793 17.4557 42.578C20.1751 43.2441 23.144 43.7575 26.2655 44.0904C28.1384 46.6569 30.0807 48.9876 32.037 51.027C27.5142 55.2309 23.2687 57.5338 20.383 57.5338C19.7588 57.5201 19.2317 57.3951 18.8154 57.1593ZM51.7237 46.5877C52.3755 51.8873 51.5711 56.0078 49.698 57.1038C49.2819 57.3535 48.7409 57.4646 48.1024 57.4646C45.2307 57.4646 40.9716 55.1754 36.4487 50.9994C38.3911 48.96 40.3334 46.6432 42.1786 44.0764C45.3141 43.7435 48.283 43.2301 51.0022 42.5504C51.3214 43.9517 51.5711 45.2975 51.7237 46.5877ZM57.0649 37.3339C55.8718 37.8473 54.5676 38.3052 53.2218 38.7352C52.4311 36.0161 51.3906 33.1858 50.1003 30.2861C51.3769 27.4004 52.4034 24.5842 53.1803 21.8787C54.5539 22.3088 55.8578 22.7805 57.0789 23.2939C61.9901 25.3886 65.1671 28.1356 65.1671 30.3138C65.1532 32.4922 61.9761 35.2529 57.0649 37.3339Z" fill="white"/>
<path d="M34.2014 36.6542C37.7033 36.6542 40.5419 33.8156 40.5419 30.3138C40.5419 26.8122 37.7033 23.9736 34.2014 23.9736C30.6999 23.9736 27.8613 26.8122 27.8613 30.3138C27.8613 33.8156 30.6999 36.6542 34.2014 36.6542ZM3.27405 71.5303H1.1811V75.1349H0V66.2245H2.94971C3.95333 66.2245 4.72443 66.4531 5.26295 66.9101C5.80557 67.3667 6.0769 68.0319 6.0769 68.9049C6.0769 69.4599 5.92594 69.9432 5.62403 70.3555C5.32621 70.7675 4.91007 71.0755 4.37561 71.2793L6.46856 75.0613V75.1349H5.20789L3.27405 71.5303ZM1.1811 70.5695H2.98644C3.56985 70.5695 4.0329 70.4185 4.37561 70.1166C4.72238 69.8148 4.89577 69.4108 4.89577 68.9049C4.89577 68.3542 4.73054 67.932 4.40008 67.6382C4.07369 67.3444 3.60044 67.1955 2.9803 67.1915H1.1811V70.5695ZM10.2996 75.2574C9.40195 75.2574 8.67164 74.9636 8.10864 74.376C7.54561 73.7844 7.26411 72.9949 7.26411 72.0078V71.7996C7.26411 71.1428 7.38854 70.5574 7.63741 70.0434C7.89037 69.525 8.24123 69.1211 8.69001 68.8316C9.14288 68.5379 9.63245 68.3908 10.1588 68.3908C11.0197 68.3908 11.6888 68.6744 12.166 69.2415C12.6434 69.8086 12.882 70.6204 12.882 71.6771V72.1483H8.39625C8.41257 72.8013 8.60231 73.3296 8.9654 73.7336C9.33258 74.1331 9.79768 74.3332 10.3607 74.3332C10.7606 74.3332 11.0991 74.2516 11.3764 74.0885C11.6541 73.9253 11.8967 73.709 12.1048 73.4398L12.7963 73.9783C12.2413 74.8308 11.4093 75.2574 10.2996 75.2574ZM10.1588 69.3212C9.70182 69.3212 9.31831 69.4884 9.00824 69.8228C8.69817 70.1535 8.50641 70.6186 8.43298 71.2182H11.7499V71.1326C11.7174 70.5574 11.5623 70.1126 11.2849 69.7983C11.0073 69.4803 10.6319 69.3212 10.1588 69.3212ZM18.2858 75.1349C18.2204 75.0042 18.1673 74.7719 18.1267 74.4372C17.6002 74.9838 16.972 75.2574 16.2417 75.2574C15.589 75.2574 15.0526 75.0737 14.6323 74.7064C14.2163 74.3351 14.0081 73.866 14.0081 73.2989C14.0081 72.6096 14.2693 72.0751 14.7914 71.6957C15.3176 71.3119 16.0562 71.1202 17.0068 71.1202H18.1084V70.6003C18.1084 70.2044 17.9899 69.8901 17.7535 69.6578C17.5168 69.4211 17.1678 69.3029 16.7068 69.3029C16.3028 69.3029 15.9644 69.4046 15.6911 69.6088C15.4178 69.8126 15.281 70.0595 15.281 70.3493H14.1427C14.1427 70.0189 14.2591 69.7006 14.4914 69.3944C14.7281 69.0845 15.0464 68.8397 15.4463 68.6601C15.8502 68.4808 16.2926 68.3908 16.7741 68.3908C17.5372 68.3908 18.1347 68.5825 18.5672 68.9663C18.9997 69.3457 19.2239 69.87 19.2404 70.5388V73.5865C19.2404 74.1946 19.3179 74.6779 19.4731 75.0368V75.1349H18.2858ZM16.4071 74.2721C16.762 74.2721 17.0986 74.1803 17.4169 73.9966C17.7349 73.813 17.9654 73.5744 18.1084 73.2806V71.9221H17.2208C15.8338 71.9221 15.1401 72.3279 15.1401 73.1398C15.1401 73.4947 15.2586 73.7723 15.495 73.9721C15.7317 74.1719 16.0357 74.2721 16.4071 74.2721ZM23.6711 74.3332C24.075 74.3332 24.428 74.2107 24.7299 73.9659C25.0317 73.7211 25.1989 73.4153 25.2315 73.048H26.3027C26.2823 73.4274 26.1516 73.7885 25.9109 74.1313C25.6702 74.4741 25.3478 74.7474 24.9439 74.9512C24.544 75.1553 24.12 75.2574 23.6711 75.2574C22.7695 75.2574 22.0514 74.9574 21.5168 74.3577C20.9867 73.7537 20.7214 72.9298 20.7214 71.8852V71.6957C20.7214 71.051 20.8396 70.4777 21.0763 69.9761C21.313 69.4741 21.6515 69.0845 22.0923 68.8071C22.5369 68.5295 23.0612 68.3908 23.6649 68.3908C24.4075 68.3908 25.0237 68.6132 25.5132 69.0581C26.0068 69.5027 26.2698 70.08 26.3027 70.7898H25.2315C25.1989 70.3614 25.0358 70.0105 24.742 69.7372C24.4525 69.4599 24.0933 69.3212 23.6649 69.3212C23.0897 69.3212 22.643 69.529 22.3247 69.9454C22.0107 70.3573 21.8534 70.9552 21.8534 71.7385V71.9525C21.8534 72.7154 22.0107 73.303 22.3247 73.7149C22.6389 74.1272 23.0878 74.3332 23.6711 74.3332ZM29.1115 66.9101V68.5134H30.3478V69.3885H29.1115V73.4947C29.1115 73.7599 29.1668 73.9597 29.2769 74.0943C29.387 74.225 29.5747 74.2904 29.8399 74.2904C29.9702 74.2904 30.1499 74.2659 30.3782 74.2169V75.1349C30.0804 75.2164 29.7909 75.2574 29.5092 75.2574C29.0036 75.2574 28.622 75.1041 28.3648 74.7983C28.1079 74.4924 27.9795 74.0577 27.9795 73.4947V69.3885H26.7737V68.5134H27.9795V66.9101H29.1115ZM41.8101 75.1349H40.6287L36.1432 68.2686V75.1349H34.9621V66.2245H36.1432L40.6411 73.1215V66.2245H41.8101V75.1349ZM47.8074 75.1349C47.7419 75.0042 47.6889 74.7719 47.6483 74.4372C47.1218 74.9838 46.4936 75.2574 45.7633 75.2574C45.1106 75.2574 44.5739 75.0737 44.1539 74.7064C43.7378 74.3351 43.5297 73.866 43.5297 73.2989C43.5297 72.6096 43.7906 72.0751 44.313 71.6957C44.8391 71.3119 45.5778 71.1202 46.5283 71.1202H47.63V70.6003C47.63 70.2044 47.5115 69.8901 47.2747 69.6578C47.0384 69.4211 46.6893 69.3029 46.2283 69.3029C45.8244 69.3029 45.486 69.4046 45.2127 69.6088C44.9394 69.8126 44.8025 70.0595 44.8025 70.3493H43.6643C43.6643 70.0189 43.7807 69.7006 44.013 69.3944C44.2497 69.0845 44.568 68.8397 44.9679 68.6601C45.3718 68.4808 45.8142 68.3908 46.2957 68.3908C47.0585 68.3908 47.6563 68.5825 48.0888 68.9663C48.5212 69.3457 48.7455 69.87 48.762 70.5388V73.5865C48.762 74.1946 48.8395 74.6779 48.9946 75.0368V75.1349H47.8074ZM45.9287 74.2721C46.2836 74.2721 46.6202 74.1803 46.9385 73.9966C47.2564 73.813 47.4869 73.5744 47.63 73.2806V71.9221H46.7424C45.3554 71.9221 44.6617 72.3279 44.6617 73.1398C44.6617 73.4947 44.7802 73.7723 45.0166 73.9721C45.2533 74.1719 45.5573 74.2721 45.9287 74.2721ZM52.0727 66.9101V68.5134H53.309V69.3885H52.0727V73.4947C52.0727 73.7599 52.128 73.9597 52.2381 74.0943C52.3482 74.225 52.5359 74.2904 52.8011 74.2904C52.9314 74.2904 53.1111 74.2659 53.3397 74.2169V75.1349C53.0416 75.2164 52.7521 75.2574 52.4704 75.2574C51.9648 75.2574 51.5832 75.1041 51.326 74.7983C51.0691 74.4924 50.9407 74.0577 50.9407 73.4947V69.3885H49.7352V68.5134H50.9407V66.9101H52.0727ZM55.8671 75.1349H54.7348V68.5134H55.8671V75.1349ZM54.643 66.7568C54.643 66.5735 54.6982 66.4184 54.8083 66.2918C54.9225 66.1652 55.0897 66.1023 55.31 66.1023C55.5305 66.1023 55.6977 66.1652 55.8119 66.2918C55.9261 66.4184 55.9832 66.5735 55.9832 66.7568C55.9832 66.9405 55.9261 67.0934 55.8119 67.216C55.6977 67.3382 55.5305 67.3996 55.31 67.3996C55.0897 67.3996 54.9225 67.3382 54.8083 67.216C54.6982 67.0934 54.643 66.9405 54.643 66.7568ZM59.8694 73.5989L61.5092 68.5134H62.6661L60.2916 75.1349H59.4285L57.0299 68.5134H58.1864L59.8694 73.5989ZM66.4174 75.2574C65.5199 75.2574 64.7896 74.9636 64.2265 74.376C63.6635 73.7844 63.3821 72.9949 63.3821 72.0078V71.7996C63.3821 71.1428 63.5065 70.5574 63.7553 70.0434C64.0081 69.525 64.359 69.1211 64.8079 68.8316C65.2608 68.5379 65.7504 68.3908 66.2765 68.3908C67.1374 68.3908 67.8065 68.6744 68.284 69.2415C68.7611 69.8086 69 70.6204 69 71.6771V72.1483H64.5141C64.5305 72.8013 64.7201 73.3296 65.0834 73.7336C65.4504 74.1331 65.9157 74.3332 66.4785 74.3332C66.8784 74.3332 67.2171 74.2516 67.4945 74.0885C67.7718 73.9253 68.0147 73.709 68.2229 73.4398L68.9144 73.9783C68.3594 74.8308 67.527 75.2574 66.4174 75.2574ZM66.2765 69.3212C65.8199 69.3212 65.4361 69.4884 65.1262 69.8228C64.816 70.1535 64.6242 70.6186 64.551 71.2182H67.8677V71.1326C67.8351 70.5574 67.68 70.1126 67.4026 69.7983C67.1253 69.4803 66.7499 69.3212 66.2765 69.3212Z" fill="white"/>
</svg>
