<svg width="135" height="60" viewBox="0 0 135 60" fill="none" xmlns="http://www.w3.org/2000/svg">
<g clip-path="url(#clip0_202_78)">
<path d="M51.2065 29.4852C49.4115 29.4852 47.9518 30.0168 46.8328 31.0787C45.7141 32.1418 45.1465 33.5352 45.1465 35.2429C45.1465 36.1276 45.2873 36.9344 45.5649 37.6737C45.8428 38.4144 46.2752 39.1008 46.8562 39.721C47.4373 40.3415 48.6004 41.1844 50.3339 42.2565C52.4612 43.555 53.8531 44.6089 54.5212 45.4318C55.1897 46.2539 55.5215 47.1155 55.5215 48.0139C55.5215 49.2165 55.1257 50.1768 54.3118 50.8984C53.4968 51.6205 52.4065 51.98 51.0552 51.98C49.6297 51.98 48.3878 51.4776 47.3215 50.48C46.2552 49.4805 45.7168 48.1587 45.7047 46.5018H45.0415V52.5152H45.7047C45.9073 51.9458 46.1873 51.6547 46.5539 51.6547C46.7302 51.6547 47.1433 51.776 47.7868 52.0034C49.3523 52.5605 50.6378 52.8292 51.6483 52.8292C53.3897 52.8292 54.8762 52.2194 56.1147 50.98C57.3515 49.741 57.9757 48.2465 57.9757 46.5018C57.9757 45.1492 57.5636 43.9452 56.7547 42.8963C55.9455 41.8458 54.372 40.6239 52.0205 39.2208C49.997 38.005 48.6836 37.015 48.0776 36.2431C47.4705 35.4723 47.1586 34.6197 47.1586 33.6842C47.1586 32.6723 47.5305 31.8594 48.2636 31.2531C48.9968 30.6465 49.9576 30.346 51.1599 30.346C52.5126 30.346 53.6405 30.7476 54.5328 31.5558C55.4244 32.3652 55.9399 33.4871 56.0915 34.9287H56.7547V29.7181H56.1381C56.0626 29.9837 55.9928 30.1534 55.9286 30.2297C55.8662 30.3055 55.7462 30.346 55.5681 30.346C55.3536 30.346 54.9712 30.2558 54.4281 30.0784C53.2649 29.6868 52.1926 29.4852 51.2062 29.4852H51.2065ZM72.8755 29.4852C70.6883 29.4852 68.7026 30.001 66.9086 31.0323C65.1118 32.0618 63.6894 33.4915 62.6399 35.3126C61.5907 37.1337 61.0697 39.0673 61.0697 41.1284C61.0697 43.8968 61.976 46.3637 63.8031 48.5258C65.631 50.6863 67.8215 52.0326 70.3631 52.5502C70.9441 52.8529 71.7754 53.6344 72.8639 54.8997C74.0902 56.3273 75.1278 57.3571 75.981 57.9702C76.815 58.5715 77.7423 59.0313 78.7257 59.3313C79.6994 59.6276 80.7518 59.7734 81.8897 59.7734C83.2678 59.7734 84.5015 59.5337 85.5883 59.0405L85.3441 58.4355C84.7133 58.6631 84.0404 58.7729 83.332 58.7729C82.3702 58.7729 81.3983 58.4558 80.4241 57.8192C79.4512 57.1808 78.2347 55.9631 76.7836 54.1668C76.1015 53.3063 75.6307 52.7631 75.3644 52.5502C78.1455 52.0071 80.432 50.6594 82.2155 48.5023C83.9981 46.3465 84.8905 43.886 84.8905 41.1281C84.8905 37.8539 83.7254 35.1018 81.4128 32.8584C79.0981 30.6144 76.2518 29.4852 72.8755 29.4852ZM86.4026 29.4852L86.4376 30.1947C87.8936 30.1947 88.7094 30.6237 88.8918 31.4858C88.9597 31.7944 88.9907 32.3639 88.9962 33.1839L88.9847 48.8747C88.9726 50.0465 88.8057 50.7947 88.4847 51.1194C88.1631 51.4418 87.6197 51.6439 86.8331 51.7242L86.7981 52.4339H101.314L101.686 48.8747H101.023C100.834 49.8442 100.4 50.5389 99.7089 50.9334C99.016 51.3308 97.791 51.5265 96.0218 51.5265H94.6491C93.057 51.5265 92.136 50.951 91.8926 49.7934C91.8426 49.5644 91.8252 49.3189 91.8228 49.0492L91.8807 33.1839C91.8807 32.0139 92.0283 31.23 92.3347 30.846C92.6439 30.4636 93.2018 30.2497 94.0094 30.1947L93.9747 29.4852H86.4026ZM73.1078 30.3458C75.5749 30.3458 77.5889 31.3176 79.1447 33.2771C80.6999 35.2373 81.471 37.9239 81.471 41.326C81.471 44.5497 80.6889 47.1308 79.1215 49.0723C77.5539 51.0134 75.4678 51.9802 72.8755 51.9802C70.3849 51.9802 68.3652 50.9831 66.8155 48.9794C65.267 46.9755 64.501 44.3739 64.501 41.1747C64.501 37.8873 65.2765 35.2558 66.8389 33.2887C68.4002 31.3239 70.491 30.346 73.1081 30.346L73.1078 30.3458ZM106.49 33.7192C106.136 33.7192 105.866 33.8387 105.664 34.0797C105.458 34.3197 105.394 34.6105 105.466 34.9637C105.536 35.3063 105.729 35.6063 106.036 35.8592C106.342 36.1118 106.671 36.2431 107.025 36.2431C107.367 36.2431 107.628 36.1118 107.816 35.8592C108.003 35.6065 108.06 35.3063 107.99 34.9637C107.918 34.6105 107.732 34.3197 107.444 34.0794C107.152 33.8387 106.832 33.7192 106.49 33.7192ZM116.062 36.1268C115.461 38.441 114.157 39.6934 112.154 39.8952L112.178 40.5584H114.515L114.469 48.3979C114.473 49.7381 114.514 50.6305 114.608 51.0847C114.839 52.1718 115.549 52.7247 116.737 52.7247C118.456 52.7247 120.259 51.6773 122.145 49.5842L121.576 49.0958C120.214 50.4742 119.01 51.166 117.958 51.166C117.312 51.166 116.912 50.7944 116.76 50.061C116.719 49.8829 116.702 49.6747 116.702 49.4329L116.725 40.5584H120.296L120.261 39.4997H116.737V36.1268H116.062ZM129.869 39.081C127.871 39.081 126.247 40.0508 124.984 41.9773C123.727 43.9071 123.338 46.0452 123.832 48.3979C124.123 49.7758 124.702 50.8437 125.588 51.5963C126.473 52.3489 127.596 52.7247 128.938 52.7247C130.188 52.7247 131.928 52.4081 132.66 51.7708C133.394 51.1339 134.071 50.1018 134.696 48.6887L134.196 48.165C133.199 49.9986 131.188 50.9218 129.671 50.9218C127.586 50.9218 126.309 49.7776 125.833 47.5021C125.769 47.1948 125.722 46.8841 125.693 46.5715C128.174 46.1789 130.054 45.4834 131.323 44.4781C132.59 43.4721 133.863 42.4058 133.626 41.2794C133.484 40.61 133.137 40.0837 132.602 39.686C132.06 39.2884 130.655 39.081 129.869 39.081ZM108.037 39.1626L103.733 40.1513V40.9189L105.222 40.7329C105.943 40.7329 106.368 41.0592 106.502 41.7097C106.547 41.9273 106.575 42.2334 106.583 42.6171L106.536 49.6539C106.524 50.6276 106.416 51.1937 106.199 51.3637C105.98 51.5339 105.402 51.6197 104.466 51.6197L104.443 52.2826H111.27L111.259 51.6194C110.31 51.6194 109.695 51.5447 109.421 51.3984C109.152 51.2537 108.966 50.9892 108.886 50.5844C108.824 50.2929 108.797 49.7902 108.793 49.0958L108.816 39.1626H108.037H108.037ZM128.775 40.4652C129.191 40.4652 129.592 40.6258 129.997 40.9421C130.395 41.2573 130.638 41.6079 130.718 41.9889C131.107 43.86 129.449 45.1531 125.716 45.8737C125.61 44.5097 125.846 43.271 126.449 42.1518C127.048 41.0334 127.827 40.4652 128.775 40.4652Z" fill="white"/>
<path d="M41.5666 2.6189H4.53025C2.04788 2.6189 0.0170898 4.64995 0.0170898 7.13205V47.9763C0.0170898 50.4584 2.04788 52.4894 4.53025 52.4894H28.9231C28.6463 40.3521 32.791 16.7973 41.5666 2.6189Z" fill="#A259FF"/>
<path d="M40.2211 3.93555H4.53034C2.76771 3.93555 1.3335 5.36949 1.3335 7.13239V44.9963C9.41665 41.8942 21.5485 39.2174 29.9369 39.339C31.6227 30.5248 36.5769 13.2511 40.2211 3.93555Z" fill="#5E17EB"/>
<path d="M50.2051 1.28212C47.6685 -0.979718 44.5972 -0.0712972 41.5664 2.61897C41.1164 3.01844 40.6674 3.46186 40.2209 3.93554C35.0356 9.43633 30.2224 19.625 28.7272 27.4066C29.3098 28.5879 29.7648 30.0953 30.0643 31.2469C30.1411 31.5421 30.2103 31.8195 30.2659 32.0553C30.3974 32.6137 30.4682 32.9755 30.4682 32.9755C30.4682 32.9755 30.4216 32.7998 30.2309 32.2466C30.1945 32.1405 30.154 32.0248 30.1061 31.8884C30.0812 31.8218 30.0545 31.7558 30.0261 31.6905C29.688 30.9042 28.7524 29.2448 28.3406 28.5221C28.0142 29.4795 27.7061 30.4431 27.4166 31.4124C28.6053 33.5874 29.3298 37.3148 29.3298 37.3148C29.3298 37.3148 29.2669 37.0732 28.9682 36.23C28.703 35.4845 27.3822 33.17 27.0693 32.629C26.534 34.605 26.3214 35.939 26.5132 36.2637C26.8856 36.8929 27.2401 37.979 27.5516 39.1798C28.2551 41.885 28.7438 45.1787 28.7438 45.1787C28.7438 45.1787 28.7595 45.3971 28.7864 45.7329C28.6885 48.0048 28.7472 50.3603 28.9232 52.4892C29.1561 55.3076 29.5948 57.7287 30.154 59.0245L30.5337 58.8176C29.7127 56.2648 29.379 52.9192 29.5251 49.0608C29.7461 43.1634 31.1032 36.0511 33.6109 28.6382C37.8477 17.4479 43.7256 8.46949 49.1053 4.1816C44.2019 8.61002 37.5656 22.944 35.579 28.2519C33.3545 34.1961 31.7782 39.774 30.8282 45.1182C32.4674 40.1079 37.7672 37.9545 37.7672 37.9545C37.7672 37.9545 40.3664 34.7487 43.404 30.1687C41.5845 30.5837 38.5966 31.2942 37.5959 31.7148C36.1195 32.334 35.7219 32.5453 35.7219 32.5453C35.7219 32.5453 40.5035 29.6332 44.6061 28.3148C50.2482 19.4284 56.3953 6.80423 50.2051 1.28212Z" fill="white"/>
</g>
<defs>
<clipPath id="clip0_202_78">
<rect width="134.771" height="60" fill="white"/>
</clipPath>
</defs>
</svg>
