<svg width="62" height="60" viewBox="0 0 62 60" fill="none" xmlns="http://www.w3.org/2000/svg">
<g clip-path="url(#clip0_202_71)">
<path d="M10.9083 0.00610352H50.6917C56.7233 0.00610352 61.6 4.8769 61.6 10.9013V49.0986C61.6 55.123 56.7233 59.9938 50.6917 59.9938H10.9083C4.87667 59.9938 0 55.123 0 49.0986V10.9013C0 4.8769 4.87667 0.00610352 10.9083 0.00610352Z" fill="white"/>
<path d="M32.3912 15.7722L24.6912 28.4619L32.9045 41.9206C32.9559 42.0232 32.9815 42.1257 32.9559 42.2283C32.9302 42.3308 32.8275 42.2539 32.6735 42.2795H26.7959C26.3852 42.2795 26.1029 42.2539 25.9232 41.9975C25.3842 40.9208 24.8195 39.8698 24.2805 38.7931C23.7415 37.742 23.1512 36.6653 22.5352 35.563C21.9192 34.4606 21.3032 33.3583 20.6872 32.2303H20.6359C20.0969 33.3327 19.5065 34.435 18.9162 35.5373C18.3259 36.6397 17.7355 37.742 17.1709 38.8187C16.5805 39.8954 15.9902 40.9977 15.3999 42.0488C15.2972 42.3052 15.0919 42.3308 14.8095 42.3308H9.16288C9.06021 42.3308 8.98321 42.3821 8.98321 42.2539C8.95755 42.1514 8.98321 42.0488 9.03455 41.9719L17.0169 28.8977L9.23988 15.7465C9.16288 15.644 9.13721 15.5414 9.18855 15.4902C9.23988 15.4133 9.34255 15.3876 9.44521 15.3876H15.2715C15.3999 15.3876 15.5282 15.4133 15.6309 15.4389C15.7335 15.4902 15.8105 15.5671 15.8875 15.6696C16.3752 16.7719 16.9399 17.8743 17.5302 18.9766C18.1462 20.079 18.7365 21.1557 19.3782 22.2324C19.9942 23.3091 20.5589 24.3858 21.0979 25.4881H21.1492C21.6882 24.3601 22.2529 23.2578 22.8175 22.1811C23.3822 21.1044 23.9725 20.0277 24.5629 18.951C25.1532 17.8743 25.7179 16.7719 26.2825 15.7209C26.3082 15.6183 26.3595 15.5158 26.4365 15.4645C26.5392 15.4133 26.6419 15.3876 26.7702 15.4133H32.1859C32.3142 15.3876 32.4425 15.4645 32.4682 15.5927C32.4939 15.6183 32.4425 15.7209 32.3912 15.7722ZM44.2492 42.8179C42.3499 42.8435 40.4505 42.459 38.7309 41.6643C37.1139 40.9208 35.7792 39.6903 34.8552 38.1778C33.9055 36.614 33.4435 34.6657 33.4435 32.3329C33.4179 30.4358 33.9055 28.5644 34.8552 26.9237C35.8305 25.2574 37.2422 23.8731 38.9362 22.9502C40.7329 21.9504 42.8889 21.4633 45.4299 21.4633C45.5582 21.4633 45.7379 21.4633 45.9689 21.4889C46.1999 21.5146 46.4565 21.5146 46.7645 21.5402V13.4393C46.7645 13.2598 46.8415 13.1573 47.0212 13.1573H52.2315C52.3599 13.1317 52.4625 13.2342 52.4882 13.3368V37.7933C52.4882 38.2547 52.5139 38.7674 52.5395 39.3314C52.5909 39.8698 52.6165 40.3825 52.6422 40.8183C52.6422 40.9977 52.5652 41.1516 52.3855 41.2285C51.0509 41.7925 49.6392 42.2026 48.2019 42.459C46.8929 42.6897 45.5839 42.8179 44.2492 42.8179ZM46.7645 37.6907V26.411C46.5335 26.3597 46.3025 26.3085 46.0715 26.2828C45.7892 26.2572 45.5069 26.2315 45.2245 26.2315C44.2235 26.2315 43.2225 26.4366 42.3242 26.8981C41.4515 27.3339 40.7072 27.9748 40.1425 28.7951C39.5779 29.6155 39.2955 30.7178 39.2955 32.0509C39.2699 32.9481 39.4239 33.8454 39.7319 34.6914C39.9885 35.3835 40.3735 35.9988 40.8869 36.5115C41.3745 36.9729 41.9649 37.3318 42.6322 37.5369C43.3252 37.7676 44.0439 37.8702 44.7625 37.8702C45.1475 37.8702 45.5069 37.8445 45.8405 37.8189C46.1742 37.8445 46.4565 37.7933 46.7645 37.6907Z" fill="#5E17EB"/>
</g>
<defs>
<clipPath id="clip0_202_71">
<rect width="61.6" height="60" fill="white"/>
</clipPath>
</defs>
</svg>
