<svg width="1440" height="1024" viewBox="0 0 1440 1024" fill="none" xmlns="http://www.w3.org/2000/svg">
<path d="M2050.52 84.6381C1688.72 139.367 1121.49 250.125 1410.06 599.758C1777.29 1044.69 2674.68 928.131 2276.12 1271.54" stroke="#202020" stroke-width="8.2894"/>
<path d="M1922.08 99.7076C1560.29 154.437 993.058 265.194 1281.63 614.828C1648.86 1059.76 2546.24 943.201 2147.68 1286.61" stroke="#202020" stroke-width="8.2894"/>
<path d="M1792.79 102.093C1430.99 156.822 863.766 267.58 1152.34 617.213C1519.56 1062.15 2416.95 945.587 2018.39 1289" stroke="#202020" stroke-width="8.2894"/>
<path d="M1663.7 94.4313C1301.91 149.16 734.679 259.918 1023.25 609.551C1390.48 1054.48 2287.86 937.925 1889.3 1281.34" stroke="#202020" stroke-width="8.2894"/>
<path d="M1535.23 79.6888C1173.44 134.418 606.207 245.175 894.777 594.809C1262 1039.74 2159.39 923.182 1760.83 1266.6" stroke="#202020" stroke-width="8.2894"/>
<path d="M1407.33 60.5926C1045.54 115.321 478.31 226.079 766.88 575.713C1134.11 1020.65 2031.49 904.086 1632.93 1247.5" stroke="#202020" stroke-width="8.2894"/>
<path d="M1279.77 39.3892C917.975 94.1181 350.746 204.876 639.317 554.509C1006.54 999.442 1903.93 882.882 1505.37 1226.3" stroke="#202020" stroke-width="8.2894"/>
<path d="M1152.26 17.8298C790.469 72.5587 223.241 183.316 511.812 532.95C879.038 977.883 1776.42 861.323 1377.86 1204.74" stroke="#202020" stroke-width="8.2894"/>
<path d="M1024.6 -2.76578C662.805 51.9631 95.5767 162.721 384.147 512.354C751.374 957.288 1648.76 840.728 1250.2 1184.14" stroke="#202020" stroke-width="8.2894"/>
<path d="M896.64 -21.431C534.844 33.2979 -32.3843 144.056 256.187 493.689C623.413 938.622 1520.8 822.062 1122.24 1165.48" stroke="#202020" stroke-width="8.2894"/>
<path d="M768.325 -37.4768C406.53 17.2521 -160.699 128.01 127.872 477.643C495.098 922.577 1392.48 806.017 993.925 1149.43" stroke="#202020" stroke-width="8.2894"/>
<path d="M639.661 -50.4371C277.865 4.29182 -289.363 115.049 -0.792459 464.683C366.434 909.616 1263.82 793.056 865.261 1136.47" stroke="#202020" stroke-width="8.2894"/>
<path d="M509.906 -60.1367C148.11 -5.4078 -419.119 105.35 -130.548 454.983C236.679 899.917 1134.07 783.357 735.506 1126.77" stroke="#202020" stroke-width="8.2894"/>
<path d="M380.807 -67.6026C19.011 -12.8737 -548.218 97.8839 -259.647 447.517C107.58 892.451 1004.97 775.891 606.406 1119.3" stroke="#202020" stroke-width="8.2894"/>
<path d="M251.614 -73.2032C-110.182 -18.4743 -677.411 92.2833 -388.84 441.917C-21.6132 886.85 875.774 770.29 477.214 1113.7" stroke="#202020" stroke-width="8.2894"/>
<path d="M122.345 -76.6826C-239.45 -21.9537 -806.679 88.8039 -518.108 438.437C-150.882 883.371 746.505 766.811 347.945 1110.22" stroke="#202020" stroke-width="8.2894"/>
<path d="M-6.96498 -77.72C-368.761 -22.9911 -935.989 87.7664 -647.418 437.4C-280.192 882.333 617.195 765.773 218.635 1109.19" stroke="#202020" stroke-width="8.2894"/>
<path d="M-136.267 -75.9059C-498.063 -21.177 -1065.29 89.5806 -776.72 439.214C-409.494 884.147 487.893 767.587 89.333 1111" stroke="#202020" stroke-width="8.2894"/>
<path d="M-265.477 -70.7014C-627.273 -15.9725 -1194.5 94.7851 -905.931 444.419C-538.704 889.352 358.683 772.792 -39.8772 1116.21" stroke="#202020" stroke-width="8.2894"/>
</svg>
