<?xml version="1.0" standalone="no"?>
<!DOCTYPE svg PUBLIC "-//W3C//DTD SVG 20010904//EN"
 "http://www.w3.org/TR/2001/REC-SVG-20010904/DTD/svg10.dtd">
<svg version="1.0" xmlns="http://www.w3.org/2000/svg"
 width="2192.000000pt" height="2192.000000pt" viewBox="0 0 2192.000000 2192.000000"
 preserveAspectRatio="xMidYMid meet">
<metadata>
Created by potrace 1.14, written by Peter Selinger 2001-2017
</metadata>
<g transform="translate(0.000000,2192.000000) scale(0.100000,-0.100000)"
fill="#000000" stroke="none">
<path d="M15565 15903 c-80 -18 -160 -50 -215 -86 -53 -35 -151 -136 -171
-175 -7 -15 -20 -38 -29 -52 -17 -27 -45 -113 -55 -170 -8 -43 -8 -186 0 -220
3 -14 8 -36 11 -50 5 -31 44 -118 64 -145 77 -102 186 -167 305 -180 17 -2 30
-4 30 -5 0 -1 21 -3 48 -3 26 -1 47 1 47 4 0 3 12 4 28 3 35 -2 167 32 196 51
12 8 26 12 29 8 4 -3 7 -1 7 5 0 7 6 12 13 12 7 0 23 9 35 20 12 11 25 20 30
20 12 0 104 97 128 135 10 17 21 32 24 35 9 9 51 99 55 120 3 11 7 30 11 43 3
12 8 33 11 47 10 45 7 214 -6 265 -6 28 -11 54 -11 59 1 5 -2 12 -7 15 -5 3
-17 23 -27 44 -25 54 -111 138 -171 166 -104 50 -252 63 -380 34z"/>
<path d="M14728 15604 c-2 -2 -42 -6 -89 -9 -46 -3 -100 -8 -119 -10 -19 -2
-73 -7 -120 -10 -47 -4 -101 -8 -120 -10 -19 -2 -73 -6 -120 -10 -177 -12
-211 -22 -230 -63 -14 -32 -17 -57 -25 -272 -3 -91 -8 -205 -10 -255 -2 -49
-7 -162 -11 -250 -3 -88 -8 -189 -9 -225 -2 -36 -5 -102 -6 -148 -2 -46 -8
-87 -14 -92 -8 -7 -26 5 -57 38 -97 102 -158 134 -338 179 -39 10 -287 9 -335
-1 -16 -3 -41 -8 -55 -11 -14 -3 -36 -8 -50 -11 -114 -23 -318 -127 -448 -229
-86 -67 -312 -322 -312 -351 0 -4 -6 -15 -14 -23 -21 -24 -114 -215 -115 -236
0 -3 -8 -19 -16 -35 -8 -16 -16 -33 -16 -37 -1 -5 -3 -12 -5 -18 -17 -53 -45
-144 -49 -160 -2 -11 -13 -65 -25 -120 -12 -55 -23 -113 -25 -130 -2 -16 -7
-66 -11 -110 -5 -44 -8 -163 -8 -265 0 -192 6 -272 29 -395 4 -22 9 -47 10
-55 12 -63 38 -158 60 -216 25 -67 82 -184 94 -194 7 -6 28 -39 38 -60 23 -49
175 -194 268 -255 90 -59 165 -96 245 -120 30 -9 62 -19 70 -22 25 -9 99 -15
215 -15 122 -1 178 5 247 26 26 7 49 11 52 8 4 -3 6 -1 6 5 0 5 6 10 14 10 21
0 144 63 201 102 45 32 175 155 175 166 0 12 45 55 57 55 10 0 12 -22 10 -97
-4 -107 3 -134 39 -154 23 -12 103 -14 184 -4 19 2 67 7 105 10 39 3 90 8 115
10 25 3 77 7 115 10 260 19 290 23 316 46 27 23 52 69 38 69 -6 0 -7 6 -3 12
5 7 9 45 10 84 1 40 4 77 8 82 3 6 2 13 -4 17 -6 4 -7 11 -4 17 4 6 8 63 10
127 2 64 3 116 4 116 0 0 3 70 6 155 9 249 9 254 16 265 4 6 3 17 -2 24 -4 8
-4 27 0 42 5 18 5 29 -1 29 -6 0 -7 5 -3 11 6 10 9 66 17 324 1 44 6 86 10 93
5 7 4 12 -3 12 -6 0 -9 8 -6 18 3 9 8 85 11 167 5 147 9 231 20 505 6 156 13
350 20 535 3 72 7 180 10 240 3 61 8 171 10 245 3 74 7 182 9 240 15 339 19
459 19 489 -1 40 -20 79 -44 86 -29 10 -57 14 -61 9z m-1202 -1957 c119 -21
232 -158 260 -314 2 -13 7 -35 10 -50 25 -126 22 -386 -7 -512 -21 -92 -22
-96 -33 -126 -5 -11 -12 -33 -18 -50 -44 -131 -139 -250 -239 -300 -27 -14
-49 -23 -49 -20 0 4 -6 3 -12 -2 -18 -11 -35 -13 -103 -15 -211 -6 -337 155
-371 474 -11 100 -6 252 10 345 2 10 6 36 10 58 11 63 48 188 63 210 7 11 13
25 13 32 0 37 112 177 171 212 92 56 196 76 295 58z"/>
<path d="M11415 15562 c-1 -2 -20 -5 -41 -8 -57 -7 -76 -11 -105 -22 -15 -6
-30 -8 -33 -5 -3 4 -6 0 -6 -7 0 -7 -3 -11 -6 -7 -7 6 -75 -29 -129 -66 -36
-25 -130 -117 -119 -117 4 0 -3 -9 -16 -20 -13 -11 -20 -20 -16 -20 4 0 -1
-12 -12 -27 -20 -29 -64 -123 -57 -123 2 0 -1 -15 -7 -32 -12 -39 -18 -271 -7
-278 4 -3 9 -20 12 -38 8 -49 55 -139 96 -185 55 -61 145 -114 226 -134 38 -9
200 -10 235 -1 19 5 45 10 57 12 43 6 163 57 163 69 0 4 7 7 16 7 19 0 174
154 174 174 0 8 4 16 10 18 5 2 25 40 44 86 19 45 31 80 26 77 -4 -2 -2 11 5
31 11 33 13 211 2 274 -8 47 -56 160 -69 160 -4 0 -8 5 -8 11 0 16 -102 109
-112 103 -4 -3 -8 -1 -8 3 0 10 -66 40 -104 48 -14 3 -38 8 -53 11 -31 7 -153
11 -158 6z"/>
<path d="M20975 15121 c-3 -2 -28 -5 -57 -6 -29 -2 -53 -4 -53 -5 0 -1 -11 -3
-25 -5 -105 -14 -251 -73 -342 -138 -77 -54 -184 -159 -194 -189 -3 -10 -10
-18 -15 -18 -5 0 -9 -6 -9 -14 0 -13 -20 -26 -39 -26 -4 0 -7 33 -5 73 1 39 3
72 4 72 1 0 3 10 4 23 2 12 -1 22 -6 22 -5 0 -7 4 -3 10 11 18 -6 57 -33 72
-15 9 -45 14 -67 13 -39 -3 -149 -11 -250 -20 -27 -3 -81 -7 -120 -11 -38 -3
-90 -7 -115 -9 -39 -3 -140 -12 -231 -20 -57 -5 -100 -56 -98 -117 0 -27 -10
-313 -11 -313 -1 0 -3 -45 -5 -100 -2 -55 -6 -181 -10 -280 -3 -99 -8 -224
-10 -277 -2 -53 -6 -102 -10 -107 -3 -6 -1 -11 5 -11 6 0 8 -5 4 -11 -6 -11
-14 -181 -17 -391 -1 -54 -6 -98 -11 -98 -6 0 -5 -5 1 -11 6 -6 7 -25 4 -47
-4 -20 -7 -72 -6 -114 0 -43 -2 -78 -5 -78 -3 0 -6 -57 -7 -128 0 -70 -4 -212
-8 -317 -4 -104 -8 -219 -9 -255 -1 -36 -5 -71 -9 -77 -5 -8 -3 -13 3 -13 6 0
8 -5 5 -10 -4 -6 -7 -45 -8 -86 -2 -58 2 -84 15 -105 22 -35 42 -38 198 -25
47 4 110 9 140 12 30 2 84 7 120 10 36 3 85 7 110 8 25 2 77 6 115 10 39 4 87
8 108 10 43 5 81 27 97 57 7 11 13 51 15 87 6 105 16 373 20 530 2 78 7 147
10 152 4 6 1 10 -5 10 -6 0 -8 5 -3 12 4 7 8 47 9 88 4 130 13 395 14 395 1 0
3 58 15 370 2 61 4 110 5 110 1 0 3 16 5 35 8 64 32 149 46 160 3 3 13 19 22
35 21 42 94 117 142 149 75 48 186 71 270 55 70 -13 116 -37 164 -88 79 -82
110 -182 105 -338 -2 -91 -13 -355 -19 -498 -3 -55 -7 -158 -10 -230 -4 -122
-8 -210 -20 -483 -9 -204 -17 -417 -17 -437 2 -58 31 -87 88 -88 29 -1 177 10
244 18 19 2 63 5 98 7 34 1 62 5 62 8 0 3 28 5 63 6 103 2 152 7 159 19 5 6 8
6 8 -2 0 -7 6 -11 13 -8 6 2 37 6 67 10 42 4 62 12 83 34 35 34 32 1 53 556 3
77 7 181 9 230 3 50 7 153 9 230 3 77 8 194 11 260 3 66 7 188 10 270 6 174
13 328 15 335 4 17 1 196 -5 255 -7 77 -28 186 -43 225 -5 14 -10 27 -10 30
-3 28 -71 170 -94 194 -10 11 -18 26 -18 33 0 8 -4 11 -10 8 -5 -3 -10 0 -10
6 0 21 -129 136 -199 178 -62 36 -202 91 -246 96 -11 1 -20 3 -20 5 0 1 -27 3
-60 5 -33 1 -60 4 -60 5 0 4 -127 5 -130 1z"/>
<path d="M18908 14904 c-3 -3 -44 -7 -223 -20 -38 -3 -88 -7 -110 -9 -63 -6
-152 -13 -245 -20 -47 -3 -96 -8 -110 -11 -14 -3 -33 -6 -42 -6 -10 1 -18 -3
-18 -9 0 -5 -6 -9 -14 -9 -20 0 -39 -63 -42 -139 -4 -91 -14 -95 -78 -30 -30
30 -61 59 -68 65 -29 23 -130 74 -148 74 -10 0 -21 4 -24 9 -5 8 -50 18 -121
28 -117 15 -405 -9 -441 -38 -6 -5 -14 -6 -17 -2 -4 3 -12 1 -19 -4 -15 -11
-113 -48 -113 -43 0 2 -19 -9 -42 -23 -24 -15 -45 -27 -48 -27 -6 0 -88 -52
-95 -61 -3 -3 -12 -10 -21 -15 -107 -60 -302 -273 -401 -439 -32 -53 -48 -85
-104 -210 -23 -53 -87 -260 -100 -322 -2 -13 -7 -35 -10 -50 -3 -16 -5 -36 -5
-45 0 -10 -5 -20 -10 -23 -5 -4 -7 -10 -5 -14 3 -4 0 -39 -5 -77 -6 -38 -11
-96 -13 -130 -1 -33 -6 -65 -9 -71 -4 -7 -3 -14 2 -18 6 -3 8 -11 5 -18 -8
-23 -9 -177 0 -177 5 0 3 -6 -3 -13 -6 -8 -8 -17 -5 -20 4 -3 8 -37 9 -74 4
-88 12 -156 30 -245 3 -16 7 -38 9 -50 2 -13 7 -30 10 -38 3 -8 7 -26 10 -40
21 -118 132 -343 212 -430 72 -78 170 -170 181 -170 3 0 19 -11 35 -25 28 -24
202 -114 230 -119 7 -2 31 -8 53 -14 53 -15 91 -22 140 -28 62 -7 165 -10 165
-4 0 3 21 5 48 6 48 1 119 11 132 19 3 2 22 7 40 10 19 3 63 19 98 35 35 17
65 30 67 30 2 0 31 18 65 41 67 44 220 193 220 214 0 14 39 28 41 14 5 -36 4
-56 -3 -66 -5 -6 -5 -14 0 -17 5 -3 7 -20 3 -38 -11 -53 8 -105 44 -122 30
-15 58 -15 215 -1 78 7 128 11 235 20 44 4 98 8 120 11 22 2 74 6 115 10 80 6
113 10 118 14 1 1 6 3 10 4 14 2 41 33 51 58 5 13 9 45 9 71 1 26 4 52 7 57 4
6 0 10 -7 10 -8 0 -9 3 -3 8 6 4 11 32 11 62 4 132 13 415 14 415 1 0 3 54 6
120 2 66 6 174 9 240 12 283 16 428 18 557 1 76 4 138 7 138 3 0 6 48 7 108 1
59 4 168 7 242 3 74 8 191 11 260 2 69 7 193 10 275 10 247 9 292 -9 320 -9
14 -26 25 -39 26 -12 0 -30 2 -39 4 -9 2 -18 1 -20 -1z m-1128 -904 c8 -4 28
-14 45 -21 99 -45 175 -163 200 -309 3 -19 8 -48 11 -65 10 -56 14 -348 4
-360 -5 -6 -5 -17 0 -25 5 -8 6 -19 2 -25 -3 -5 -7 -14 -8 -20 -1 -5 -5 -26
-9 -45 -3 -19 -11 -53 -17 -75 -6 -22 -12 -42 -13 -45 -16 -69 -92 -212 -139
-264 -48 -52 -125 -108 -138 -100 -4 3 -8 0 -8 -6 0 -6 -4 -9 -9 -5 -5 3 -12
2 -15 -3 -10 -16 -159 -22 -219 -8 -67 16 -159 92 -173 144 -3 12 -10 22 -14
22 -4 0 -10 8 -13 18 -3 9 -14 42 -26 73 -33 90 -42 153 -45 314 -2 66 1 128
6 138 6 11 5 17 -2 17 -6 0 -9 4 -6 8 3 5 8 24 11 43 48 288 110 424 243 531
60 48 157 78 247 76 39 -1 77 -4 85 -8z"/>
<path d="M15948 14655 c-2 -2 -43 -6 -93 -9 -49 -3 -103 -8 -120 -10 -16 -2
-70 -7 -120 -11 -49 -3 -106 -8 -125 -10 -19 -2 -73 -7 -120 -11 -138 -10
-144 -11 -165 -19 -26 -11 -51 -36 -59 -62 -7 -22 -12 -113 -21 -353 -3 -85
-7 -202 -10 -260 -5 -131 -14 -368 -20 -525 -3 -66 -7 -183 -10 -260 -3 -77
-8 -194 -10 -260 -3 -66 -7 -172 -10 -235 -12 -296 -18 -473 -19 -567 -1 -57
-3 -103 -6 -103 -8 0 -4 -55 4 -68 4 -7 4 -12 -1 -12 -4 0 -9 -47 -11 -104 -2
-98 -1 -106 22 -133 27 -31 53 -34 226 -18 52 5 119 9 147 9 29 1 53 3 53 6 0
3 15 6 33 6 17 1 68 4 112 8 134 12 199 17 230 19 17 1 42 13 57 27 33 30 43
87 43 237 0 55 2 100 5 98 3 -2 5 40 6 93 0 54 4 174 8 267 11 280 19 507 19
560 1 28 6 53 12 57 7 5 7 8 -1 8 -5 0 -9 14 -7 33 2 17 5 93 8 167 2 74 7
191 10 260 3 69 8 193 11 276 2 82 6 197 9 255 25 575 24 594 -3 620 -19 17
-74 33 -84 24z"/>
<path d="M3046 14623 c-2 -3 -89 -11 -191 -18 -33 -2 -82 -6 -110 -9 -27 -3
-81 -8 -120 -11 -38 -3 -95 -8 -125 -10 -111 -10 -141 -17 -163 -38 -24 -24
-29 -37 -31 -84 -1 -18 -5 -35 -8 -39 -4 -4 -3 -14 2 -24 5 -10 7 -20 3 -24
-3 -3 -7 -61 -9 -128 -2 -68 -6 -193 -8 -278 -14 -390 -16 -453 -21 -580 -8
-222 -17 -510 -19 -587 0 -40 -4 -73 -9 -73 -4 0 -5 -5 -2 -11 9 -13 13 -69 6
-69 -3 0 -7 -66 -8 -147 -1 -105 -5 -150 -15 -159 -18 -19 -29 -8 -73 71 -21
39 -47 86 -58 105 -11 19 -34 61 -51 93 -17 32 -35 66 -41 75 -17 29 -82 145
-112 202 -17 30 -60 108 -96 173 -36 64 -63 117 -59 117 3 0 -3 7 -14 15 -10
8 -14 15 -9 15 7 0 7 3 0 8 -5 4 -19 25 -31 47 -11 22 -33 63 -49 90 -15 28
-44 79 -63 115 -20 36 -56 101 -81 145 -25 44 -55 98 -66 120 -11 22 -23 42
-28 43 -4 2 -5 8 -1 13 3 5 0 9 -5 9 -6 0 -11 4 -11 9 0 5 -25 53 -56 107 -31
55 -60 108 -66 119 -5 11 -14 29 -21 40 -7 11 -34 61 -62 110 -27 50 -55 99
-61 110 -7 11 -22 39 -33 61 -49 94 -83 107 -241 90 -25 -2 -79 -7 -120 -11
-77 -6 -147 -12 -235 -20 -27 -2 -79 -7 -115 -10 -201 -16 -206 -22 -215 -240
-3 -83 -8 -211 -11 -285 -3 -74 -6 -181 -7 -237 -1 -57 -4 -103 -7 -103 -3 0
-5 -51 -5 -113 0 -61 -3 -122 -7 -134 -5 -14 -3 -23 3 -23 6 0 7 -5 3 -11 -3
-6 -8 -54 -9 -108 -2 -53 -6 -175 -10 -271 -4 -96 -9 -211 -11 -255 -1 -44 -5
-152 -8 -240 -3 -88 -8 -214 -11 -280 -3 -66 -7 -185 -10 -265 -3 -80 -8 -192
-10 -250 -5 -108 -10 -221 -20 -490 -3 -85 -7 -202 -10 -260 -19 -442 -19
-444 30 -470 22 -12 86 -11 240 4 82 8 213 19 370 31 39 3 84 7 100 9 17 2 42
4 57 5 40 2 85 45 92 89 3 20 8 116 12 212 5 179 8 260 19 550 16 448 20 572
40 1155 8 234 10 256 26 266 15 9 36 -17 76 -96 17 -33 41 -78 53 -100 55 -95
70 -122 89 -160 11 -22 43 -80 71 -130 28 -49 63 -115 78 -145 15 -30 30 -57
33 -60 3 -3 27 -45 54 -95 26 -49 65 -121 86 -158 22 -38 39 -72 39 -75 0 -4
9 -18 20 -32 11 -14 20 -33 20 -42 0 -10 4 -18 8 -18 4 0 25 -33 45 -72 60
-114 81 -153 90 -159 5 -3 9 -10 9 -15 1 -17 32 -74 40 -74 4 0 8 -7 8 -16 0
-9 8 -28 18 -42 11 -15 26 -40 34 -57 35 -70 83 -160 88 -165 3 -3 12 -18 21
-35 9 -16 31 -57 49 -90 18 -32 44 -80 57 -105 13 -25 37 -70 53 -100 16 -30
43 -67 60 -81 29 -24 38 -26 103 -24 40 2 72 4 72 5 0 1 29 4 65 6 103 8 145
12 145 13 0 1 32 4 70 6 39 2 99 7 135 10 36 3 93 8 128 10 97 7 138 37 147
110 2 11 6 108 9 215 4 108 8 231 11 275 2 44 7 159 10 255 7 218 13 367 31
840 4 96 7 230 8 297 1 68 3 123 6 123 3 0 6 35 6 78 1 42 4 158 8 257 10 258
15 379 21 555 6 158 10 266 20 539 3 84 8 157 11 162 3 5 0 9 -6 9 -6 0 -8 5
-4 12 4 7 9 67 11 134 3 118 2 124 -21 151 -21 25 -31 28 -81 28 -31 0 -58 -1
-59 -2z"/>
<path d="M11636 14292 c-2 -1 -32 -5 -67 -7 -35 -2 -100 -7 -144 -11 -44 -4
-99 -8 -122 -8 -24 -1 -43 -3 -43 -6 0 -3 -19 -6 -42 -6 -24 -1 -74 -4 -113
-8 -38 -4 -85 -8 -103 -10 -35 -3 -86 -35 -88 -55 -1 -6 -3 -12 -4 -13 -4 -6
-9 -69 -15 -233 -3 -93 -8 -213 -11 -265 -2 -52 -6 -158 -9 -235 -3 -77 -7
-189 -9 -250 -3 -60 -7 -182 -11 -270 -8 -225 -14 -360 -19 -510 -3 -71 -8
-197 -11 -280 -3 -82 -8 -195 -10 -250 -24 -575 -24 -560 7 -592 23 -22 34
-25 85 -24 32 1 74 4 93 6 19 2 73 6 120 10 47 4 101 8 120 10 19 2 69 6 110
10 41 3 98 8 125 10 28 3 76 7 108 10 64 5 111 31 123 67 7 22 8 48 19 323 3
88 8 203 10 255 2 52 7 172 10 265 3 94 8 220 11 280 9 209 14 341 19 510 3
94 5 170 6 170 1 0 2 36 4 80 1 44 6 157 9 250 4 94 9 223 11 288 3 66 7 123
11 128 3 5 0 9 -6 9 -7 0 -8 6 -2 18 4 9 8 81 7 159 0 175 -2 178 -106 178
-39 0 -72 -1 -73 -3z"/>
<path d="M9688 14174 c-2 -1 -26 -5 -53 -8 -297 -30 -533 -177 -698 -435 -26
-41 -47 -78 -47 -83 0 -13 -34 -48 -47 -48 -7 0 -13 5 -13 12 0 6 -19 43 -41
81 -45 76 -140 178 -204 218 -75 48 -90 56 -160 79 -38 12 -77 25 -85 28 -22
8 -96 14 -172 16 -38 0 -68 5 -68 9 0 4 -8 4 -17 -1 -10 -5 -40 -10 -68 -11
-27 -2 -52 -4 -55 -6 -3 -2 -24 -6 -47 -10 -90 -13 -295 -96 -333 -135 -3 -3
-22 -18 -43 -33 -51 -39 -125 -116 -143 -149 -8 -16 -19 -28 -24 -28 -6 0 -10
-5 -10 -10 0 -18 -43 -70 -57 -70 -10 0 -12 25 -9 114 2 63 7 119 10 125 4 5
2 12 -4 16 -5 3 -10 14 -10 23 0 10 -12 25 -27 34 -29 16 -73 17 -218 3 -38
-3 -95 -8 -125 -10 -53 -4 -136 -11 -230 -20 -25 -2 -88 -7 -140 -10 -101 -7
-143 -25 -160 -70 -5 -13 -12 -99 -15 -192 -4 -92 -8 -215 -11 -273 -2 -58 -6
-168 -9 -245 -3 -77 -7 -198 -10 -270 -12 -294 -16 -405 -18 -502 -1 -57 -6
-103 -12 -103 -5 0 -4 -5 2 -11 7 -7 8 -21 3 -39 -4 -15 -4 -33 0 -41 5 -7 6
-18 2 -23 -3 -6 -7 -53 -8 -106 -2 -52 -3 -95 -4 -95 0 0 -3 -56 -5 -125 -2
-69 -7 -192 -10 -275 -3 -82 -7 -195 -9 -251 -2 -56 -6 -106 -10 -112 -3 -6
-2 -22 4 -36 5 -14 6 -26 2 -26 -4 0 -7 -32 -7 -70 0 -39 3 -70 7 -70 3 0 9
-8 13 -18 7 -23 41 -39 75 -36 14 1 61 5 105 9 44 3 103 8 130 11 28 2 79 6
115 9 36 3 88 7 115 10 28 2 84 7 125 10 135 11 145 12 172 23 41 17 60 63 63
159 2 47 6 87 9 90 2 3 1 16 -4 29 -5 13 -6 24 -2 24 4 0 8 44 9 98 2 105 9
316 19 562 3 85 7 206 8 267 0 62 3 113 6 113 3 0 6 53 7 118 5 260 14 427 23
440 2 1 3 5 4 10 11 44 45 122 63 140 7 7 13 16 13 20 0 8 53 62 90 93 90 74
267 96 366 46 27 -14 58 -34 69 -44 24 -23 70 -83 70 -92 1 -3 6 -15 11 -26
33 -60 39 -154 29 -395 -2 -57 -10 -255 -20 -540 -2 -47 -6 -155 -10 -240 -7
-170 -12 -327 -21 -583 l-5 -167 28 -29 c22 -22 36 -28 63 -25 19 1 71 5 115
9 90 7 174 14 255 20 30 2 55 4 55 5 0 1 23 3 50 4 52 3 154 12 239 22 27 3
60 13 72 22 20 15 41 64 36 85 -1 4 1 7 5 7 5 0 9 57 10 128 3 144 3 147 2
165 0 13 9 266 16 422 6 116 12 303 30 805 6 191 9 213 35 308 18 68 74 159
127 207 27 25 74 60 82 61 9 1 44 15 61 23 8 4 23 7 33 5 9 -1 17 1 17 5 0 4
28 6 63 5 34 -1 62 -3 62 -4 0 -1 7 -3 15 -5 36 -8 90 -36 99 -52 6 -10 11
-14 11 -10 0 16 50 -46 69 -87 53 -109 57 -175 36 -661 -9 -203 -14 -335 -20
-535 -4 -102 -8 -219 -10 -260 -1 -41 -6 -172 -10 -290 l-7 -215 27 -27 c31
-31 38 -31 330 -3 22 2 83 7 135 11 52 3 111 8 130 10 19 2 71 7 115 10 155
11 174 34 180 212 5 141 15 393 20 517 2 50 7 162 10 250 10 254 14 351 19
485 28 644 27 720 -9 894 -35 169 -107 308 -211 412 -62 61 -170 134 -199 134
-8 0 -16 4 -19 9 -5 7 -71 28 -116 37 -8 1 -28 5 -45 9 -31 7 -242 15 -247 9z"/>
<path d="M5917 13814 c-1 -1 -34 -5 -72 -8 -39 -3 -97 -8 -130 -11 -33 -3 -80
-7 -105 -9 -173 -14 -265 -23 -265 -25 0 -1 -25 -3 -56 -5 -62 -3 -103 -26
-115 -66 -4 -14 -8 -52 -10 -85 -9 -189 -17 -414 -18 -512 -1 -62 -3 -113 -6
-113 -3 0 -6 -39 -6 -88 -1 -48 -5 -154 -8 -237 -4 -82 -6 -161 -6 -175 1 -14
1 -29 1 -35 -2 -24 -10 -192 -15 -340 -8 -194 -11 -232 -25 -267 -6 -16 -7
-28 -3 -28 4 0 3 -4 -3 -8 -5 -4 -20 -27 -31 -52 -48 -100 -158 -192 -264
-222 -64 -17 -205 -16 -227 2 -2 2 -7 3 -13 4 -25 3 -88 52 -118 91 -54 70
-75 144 -75 265 -1 96 8 380 18 540 2 36 6 144 10 240 3 96 8 207 10 245 3 39
7 153 11 255 3 102 8 214 9 250 10 193 9 201 -18 227 -33 33 -48 33 -322 7
-27 -3 -79 -7 -115 -9 -36 -2 -99 -7 -140 -11 -41 -4 -99 -8 -127 -8 -29 -1
-53 -4 -53 -8 0 -4 -8 -7 -17 -6 -40 3 -61 -3 -84 -25 -34 -33 -37 -50 -43
-232 -2 -66 -5 -120 -5 -120 -1 0 -4 -74 -6 -165 -3 -91 -7 -214 -10 -275 -3
-60 -7 -171 -10 -245 -3 -74 -8 -193 -10 -265 -3 -71 -7 -179 -10 -240 -2 -60
-7 -184 -11 -275 -12 -279 0 -445 41 -561 8 -21 12 -39 8 -39 -3 0 0 -6 6 -13
6 -8 12 -22 14 -33 4 -27 78 -164 88 -164 5 0 9 -4 9 -10 0 -5 10 -22 23 -36
40 -47 67 -75 67 -71 0 3 14 -8 31 -24 72 -67 243 -140 364 -155 100 -13 337
-6 364 10 3 2 23 7 44 10 20 3 62 15 92 25 29 10 56 16 59 13 3 -3 6 0 6 6 0
7 6 12 13 12 8 0 34 11 58 25 24 13 59 31 76 41 31 15 164 140 227 213 26 29
31 31 41 18 6 -9 10 -35 8 -59 -11 -134 1 -186 44 -196 30 -6 113 -8 113 -3 0
4 21 6 48 7 26 0 83 4 127 8 138 12 219 18 250 20 17 0 33 5 37 11 5 6 8 6 8
-2 0 -6 8 -10 18 -8 9 2 17 4 17 5 0 1 23 3 51 5 131 7 165 20 186 70 18 44
17 25 33 522 1 56 6 106 9 112 4 6 2 11 -4 11 -6 0 -8 5 -4 12 5 7 9 53 10
103 2 82 6 187 19 530 3 66 6 172 9 236 2 64 6 122 10 128 4 6 2 19 -3 29 -6
11 -8 22 -4 25 3 3 7 55 9 114 10 311 13 355 18 360 3 3 1 14 -5 24 -5 11 -6
19 -2 19 4 0 8 39 9 88 2 177 9 277 19 284 7 5 6 8 -1 8 -6 0 -9 20 -7 53 12
173 5 224 -30 247 -18 11 -121 23 -130 14z"/>
<path d="M16738 10924 c-2 -1 -41 -5 -88 -8 -47 -4 -105 -8 -130 -11 -52 -5
-173 -15 -245 -20 -27 -2 -50 -4 -50 -5 0 -1 -20 -3 -45 -5 -136 -9 -202 -16
-222 -24 -42 -16 -69 -56 -83 -121 -1 -3 -7 -25 -14 -50 -7 -25 -15 -52 -17
-60 -2 -8 -10 -40 -19 -70 -19 -66 -64 -229 -69 -250 -2 -8 -9 -35 -16 -60 -7
-25 -12 -45 -11 -45 0 0 -6 -22 -15 -50 -22 -71 -46 -159 -58 -214 -2 -10 -14
-51 -26 -91 -19 -64 -24 -83 -33 -125 -2 -5 -6 -16 -10 -22 -5 -7 -6 -13 -3
-13 3 0 -1 -15 -9 -34 -8 -18 -12 -36 -9 -39 3 -3 2 -12 -2 -19 -5 -7 -9 -17
-11 -23 -1 -5 -16 -59 -32 -120 -17 -60 -33 -119 -36 -130 -21 -89 -30 -115
-37 -115 -5 0 -7 -4 -4 -9 3 -4 -3 -39 -14 -77 -24 -82 -29 -98 -34 -121 -2
-10 -12 -44 -21 -77 -9 -32 -18 -64 -19 -70 -2 -6 -8 -31 -15 -56 -8 -25 -15
-52 -16 -60 -2 -8 -4 -15 -5 -15 -1 0 -3 -9 -6 -20 -2 -11 -15 -60 -29 -110
-14 -49 -29 -103 -32 -120 -3 -16 -10 -33 -16 -37 -7 -4 -9 -8 -5 -8 3 0 -3
-33 -14 -72 -10 -40 -27 -103 -36 -140 -20 -79 -35 -100 -51 -71 -5 11 -12 31
-15 44 -3 13 -10 49 -15 79 -6 30 -13 64 -16 75 -7 29 -33 148 -39 176 -3 13
-7 35 -10 49 -8 36 -25 122 -29 145 -2 11 -7 27 -10 35 -3 8 -8 33 -11 55 -2
22 -7 47 -10 55 -7 20 -18 70 -20 95 0 11 -5 26 -10 33 -4 7 -5 16 -2 19 3 3
1 13 -4 22 -4 9 -11 37 -15 61 -3 25 -10 59 -15 75 -7 26 -12 47 -26 125 -1 8
-12 58 -23 110 -12 52 -23 104 -26 115 -2 11 -9 43 -15 70 -5 28 -12 59 -14
70 -2 11 -16 76 -32 145 -15 69 -28 134 -29 145 -1 11 -4 29 -8 40 -3 11 -9
34 -12 50 -10 48 -15 73 -20 97 -2 13 -7 37 -11 53 -4 17 -8 40 -8 53 -1 12
-4 22 -8 22 -4 0 -7 8 -7 18 -1 20 -5 46 -15 82 -3 14 -8 36 -10 50 -3 14 -5
26 -7 28 -2 3 -4 10 -14 67 -4 28 -10 55 -11 60 -5 18 -14 59 -19 89 -16 86
-55 100 -225 81 -19 -2 -69 -7 -110 -10 -41 -3 -97 -8 -125 -11 -27 -2 -77 -6
-110 -9 -33 -2 -85 -7 -115 -10 -30 -3 -84 -7 -120 -10 -118 -9 -139 -15 -160
-44 -10 -16 -18 -37 -16 -47 2 -11 6 -37 10 -59 4 -22 11 -53 16 -70 17 -60
30 -110 34 -130 2 -11 6 -27 9 -35 6 -15 64 -242 70 -276 2 -10 7 -26 10 -34
3 -8 10 -35 16 -60 7 -25 14 -54 17 -65 3 -11 7 -31 10 -43 3 -13 12 -49 20
-80 8 -32 17 -64 19 -72 2 -8 36 -141 75 -295 90 -349 108 -421 115 -455 2 -8
4 -15 5 -15 1 0 3 -7 5 -15 2 -8 6 -24 9 -35 5 -18 24 -96 26 -102 0 -2 0 -4
1 -5 0 -2 2 -10 4 -18 2 -8 6 -24 9 -35 3 -11 10 -38 16 -60 6 -22 13 -51 16
-63 2 -13 12 -49 20 -80 8 -32 17 -64 19 -72 1 -8 11 -44 20 -80 9 -36 19 -73
21 -82 2 -10 6 -27 9 -38 3 -11 7 -28 9 -37 3 -10 21 -81 41 -158 36 -136 40
-152 49 -195 3 -11 8 -24 11 -30 3 -5 8 -22 10 -37 3 -16 9 -46 15 -68 6 -22
13 -51 16 -63 2 -13 12 -49 20 -80 8 -32 17 -64 19 -72 1 -8 8 -35 15 -60 7
-25 13 -49 14 -55 1 -5 5 -16 9 -22 5 -7 6 -13 4 -13 -3 0 4 -33 14 -72 23
-86 23 -84 44 -168 9 -36 21 -81 26 -100 5 -19 11 -42 13 -50 50 -199 55 -206
141 -202 36 2 231 18 325 26 78 7 195 17 260 21 30 2 55 4 55 5 0 1 27 3 60 5
101 8 112 11 147 37 26 20 38 42 57 104 14 44 26 84 27 89 1 6 9 29 18 53 8
23 13 42 9 42 -3 0 0 7 7 15 7 8 9 15 5 15 -4 0 -3 6 2 13 6 6 14 26 18 42 12
44 12 45 15 50 1 3 4 10 5 15 1 6 4 12 5 15 1 3 3 8 5 13 1 4 4 14 7 22 16 40
71 227 71 238 0 6 4 12 9 12 4 0 8 9 8 20 0 12 7 34 15 50 9 17 13 30 10 30
-3 0 1 14 10 30 9 17 13 30 11 30 -3 0 4 26 15 58 11 31 22 64 24 72 2 8 13
44 25 80 13 36 23 71 23 78 0 6 5 12 10 12 6 0 8 3 4 6 -3 3 -1 18 5 33 5 14
11 33 13 41 2 8 13 42 23 75 11 33 57 175 102 315 45 140 84 262 87 270 4 8 7
18 8 23 2 4 3 8 5 10 1 1 3 9 5 17 6 30 110 355 115 360 3 3 6 10 6 15 2 14
112 362 130 408 7 20 11 37 8 37 -4 0 -2 6 3 13 6 6 14 26 18 42 5 17 9 32 10
35 1 3 5 19 10 35 4 17 12 35 17 41 5 7 8 16 6 20 -1 5 3 19 10 32 7 12 11 22
8 22 -3 0 7 33 21 73 14 39 27 79 28 87 6 26 166 524 175 545 13 28 52 164 49
167 -1 2 3 14 10 26 7 13 14 33 17 45 2 12 6 33 9 45 6 33 -25 63 -69 66 -19
2 -37 2 -38 0z"/>
<path d="M13346 10642 c-3 -3 -21 -6 -38 -8 -18 -1 -67 -5 -108 -8 -41 -3
-102 -8 -135 -11 -55 -4 -129 -11 -230 -21 -22 -2 -74 -6 -115 -9 -41 -3 -97
-7 -125 -10 -45 -4 -86 -8 -240 -20 -27 -3 -81 -7 -120 -9 -38 -3 -70 -6 -70
-6 0 -1 -58 -7 -165 -15 -36 -2 -85 -7 -110 -9 -25 -3 -79 -7 -120 -11 -41 -3
-100 -8 -130 -10 -30 -3 -84 -8 -120 -11 -36 -3 -85 -7 -110 -9 -25 -2 -74 -6
-110 -9 -36 -3 -96 -8 -135 -12 -38 -3 -90 -7 -115 -9 -191 -12 -258 -21 -288
-41 -43 -28 -46 -50 -57 -364 -3 -91 -8 -217 -10 -280 -3 -63 -7 -173 -10
-245 -3 -71 -8 -202 -11 -290 -3 -88 -7 -206 -8 -262 0 -57 -3 -103 -6 -103
-3 0 -6 -44 -6 -98 -3 -209 -11 -380 -19 -392 -6 -9 -4 -11 5 -5 9 6 11 4 5
-5 -4 -7 -9 -67 -11 -134 -8 -235 -13 -371 -14 -371 -1 0 -10 -254 -14 -375
-1 -41 -5 -81 -9 -87 -5 -7 -4 -13 1 -13 5 0 7 -12 5 -27 -4 -28 -9 -154 -17
-388 -3 -71 -5 -130 -6 -130 -1 0 -12 -314 -12 -354 0 -38 29 -83 57 -88 32
-5 72 -4 225 11 76 8 192 17 250 21 30 2 82 7 115 10 61 6 130 11 245 20 36 3
92 8 125 11 33 3 77 6 98 7 20 1 37 6 37 11 0 4 6 3 13 -3 8 -6 16 -8 20 -5 3
3 27 7 54 9 75 6 193 15 248 20 28 2 82 7 120 10 39 3 93 7 120 10 96 9 207
18 360 30 28 2 70 6 95 9 25 2 83 7 130 11 47 3 108 8 135 11 28 2 77 6 110 9
136 11 155 18 178 67 16 34 18 69 33 520 l6 188 -29 28 c-22 23 -35 28 -63 25
-54 -6 -128 -12 -205 -18 -128 -11 -149 -13 -230 -20 -44 -4 -102 -8 -130 -10
-115 -9 -166 -14 -175 -20 -6 -3 -10 -1 -10 5 0 6 -5 8 -12 4 -11 -7 -34 -10
-135 -16 -29 -2 -53 -5 -53 -8 0 -3 -28 -5 -63 -6 -102 -2 -152 -7 -159 -19
-5 -6 -8 -5 -8 3 0 7 -4 11 -8 8 -5 -3 -44 -7 -88 -11 -43 -3 -97 -8 -119 -10
-22 -3 -76 -7 -120 -10 -44 -3 -108 -8 -142 -10 -84 -6 -83 -9 -71 153 2 23 0
42 -5 42 -4 0 -5 6 0 12 4 7 8 47 9 88 4 136 15 404 18 448 2 24 10 50 17 57
8 8 50 16 99 20 47 4 105 8 130 10 90 7 176 15 230 20 30 3 89 7 130 10 41 3
95 7 120 10 89 9 166 15 240 20 75 5 138 12 174 18 23 4 74 63 75 86 0 9 2 68
5 131 3 63 8 180 10 260 3 80 6 145 6 145 1 0 2 27 3 59 2 72 -18 111 -65 124
-18 5 -38 5 -44 1 -6 -5 -16 -3 -22 3 -7 7 -12 8 -12 2 0 -5 -19 -10 -43 -11
-23 0 -69 -4 -102 -7 -68 -6 -198 -17 -265 -21 -25 -2 -45 -4 -45 -5 0 -1 -20
-3 -45 -5 -25 -1 -81 -6 -125 -10 -44 -4 -98 -8 -120 -10 -22 -2 -78 -6 -125
-10 -126 -11 -164 -12 -177 -8 -12 5 -11 44 1 425 3 70 7 132 10 137 4 5 2 12
-4 16 -6 4 -7 11 -3 18 4 6 7 39 8 74 1 41 6 68 16 78 8 8 47 16 99 20 47 4
101 8 120 10 19 2 73 6 120 10 47 4 101 8 120 10 19 2 78 6 130 10 52 4 103 9
113 11 9 1 59 6 110 9 50 4 108 8 127 10 19 2 73 6 120 10 47 3 101 8 120 10
19 3 69 7 110 10 41 3 100 8 130 11 30 2 75 6 100 8 25 2 83 7 130 11 95 7
124 18 152 56 21 27 25 70 33 329 2 74 4 135 5 135 1 0 3 50 5 110 4 118 -6
169 -33 180 -31 13 -81 23 -86 17z"/>
<path d="M9018 10275 c-2 -1 -41 -5 -87 -9 -46 -3 -87 -9 -92 -12 -5 -3 -9 0
-9 7 0 8 -4 8 -12 2 -7 -6 -20 -10 -28 -11 -35 -1 -225 -12 -225 -12 0 -4 -50
-10 -115 -14 -41 -2 -75 -5 -75 -6 0 -1 -25 -3 -55 -5 -30 -2 -86 -6 -125 -10
-38 -4 -95 -8 -125 -10 -30 -2 -55 -4 -55 -5 0 -1 -20 -3 -45 -5 -70 -4 -221
-17 -265 -21 -22 -2 -65 -6 -95 -8 -30 -2 -56 -5 -57 -6 -3 -2 -16 -6 -30 -9
-5 -1 -18 -16 -30 -34 -19 -28 -23 -50 -28 -142 -5 -131 -17 -455 -19 -505 0
-19 -5 -38 -11 -42 -7 -5 -6 -8 1 -8 6 0 10 -12 8 -27 -2 -16 -6 -100 -9 -188
-3 -88 -8 -209 -10 -270 -2 -60 -7 -173 -10 -250 -3 -77 -8 -196 -11 -265 -3
-69 -7 -179 -9 -245 -4 -112 -7 -185 -20 -500 -3 -66 -8 -185 -10 -265 -3 -80
-7 -197 -10 -260 -3 -63 -7 -167 -10 -230 -2 -63 -7 -178 -10 -255 -3 -77 -8
-201 -10 -275 -3 -74 -6 -147 -9 -163 -2 -15 1 -30 5 -33 5 -3 9 -13 9 -22 0
-10 12 -24 28 -33 27 -15 50 -16 157 -5 80 8 269 23 390 31 28 2 50 5 50 5 0
1 25 3 55 5 30 2 82 6 115 10 33 3 87 7 120 10 33 2 87 7 120 10 33 4 85 8
115 10 70 5 143 11 250 21 115 10 135 12 135 13 0 1 20 4 45 6 25 3 56 7 70
10 14 3 41 8 60 11 70 11 197 46 286 80 51 19 97 34 103 34 6 0 11 5 11 10 0
6 9 10 19 10 11 0 23 5 26 10 4 6 11 8 16 5 5 -4 9 -2 9 4 0 6 11 13 25 17 14
3 25 10 25 15 0 5 9 9 20 9 11 0 20 5 20 10 0 6 6 10 13 10 7 0 23 9 35 20 12
11 25 20 29 20 5 0 15 6 23 13 9 7 37 28 63 46 46 31 201 180 242 231 43 54
95 131 95 140 0 6 5 10 10 10 6 0 10 5 10 10 0 6 11 27 24 48 12 20 23 39 23
42 0 3 10 24 22 48 12 23 19 42 15 42 -4 0 -2 6 4 13 11 14 62 169 67 207 2
14 8 54 14 89 6 35 10 66 9 70 0 3 0 8 1 11 4 9 13 254 15 372 0 65 3 118 6
118 3 0 6 44 6 98 2 165 13 425 18 430 3 2 1 12 -4 22 -5 10 -7 20 -3 24 3 3
8 52 9 108 4 99 11 289 16 411 2 31 -1 57 -6 57 -5 0 -4 6 1 13 5 6 8 21 7 32
-1 11 -4 52 -8 91 -3 39 -13 100 -21 135 -9 35 -18 72 -20 82 -7 32 -44 126
-66 170 -66 130 -198 275 -326 360 -68 45 -227 126 -262 132 -9 2 -17 4 -18 5
-2 2 -7 4 -13 5 -5 1 -11 3 -12 5 -4 2 -41 11 -55 12 -7 1 -13 5 -13 9 0 5 -7
6 -15 3 -8 -3 -20 -2 -27 2 -15 10 -16 10 -168 30 -36 5 -318 12 -322 9z m128
-845 c31 -11 81 -38 110 -60 53 -40 134 -149 134 -180 0 -9 4 -20 9 -25 5 -6
12 -26 16 -45 3 -19 9 -51 12 -70 4 -19 7 -56 7 -82 1 -27 5 -48 9 -48 5 0 5
-5 1 -11 -4 -6 -8 -66 -10 -133 -2 -66 -6 -184 -9 -261 -3 -77 -7 -196 -9
-265 -3 -69 -5 -125 -6 -125 0 0 -3 -58 -5 -130 -10 -300 -14 -366 -21 -387
-4 -13 -8 -32 -9 -43 -2 -28 -24 -104 -41 -142 -8 -17 -14 -34 -14 -37 0 -7
-60 -107 -75 -123 -36 -41 -110 -113 -116 -113 -4 0 -14 -6 -21 -12 -18 -17
-108 -59 -121 -57 -1 0 -15 -5 -31 -11 -16 -6 -59 -13 -95 -16 -91 -8 -136
-12 -136 -14 0 0 -37 -3 -81 -5 -45 -3 -99 -7 -120 -9 -114 -15 -242 -18 -249
-6 -7 11 -7 100 0 250 2 36 6 137 9 225 4 88 9 210 11 270 10 233 18 443 19
522 0 46 3 83 6 83 3 0 6 48 6 108 1 59 4 179 8 267 3 88 8 221 11 295 13 333
13 333 32 351 13 12 43 19 108 23 84 6 136 11 260 22 28 2 91 7 140 10 50 3
91 7 93 8 8 9 119 -7 168 -24z"/>
<path d="M6433 7095 c-23 -7 -45 -10 -48 -7 -3 3 -5 0 -5 -6 0 -6 -7 -9 -15
-6 -8 4 -15 1 -15 -5 0 -6 -9 -11 -20 -11 -11 0 -20 -3 -20 -8 0 -4 -15 -13
-32 -21 -18 -8 -51 -28 -73 -44 -54 -41 -176 -168 -170 -177 3 -4 -2 -11 -11
-14 -8 -3 -12 -10 -9 -16 3 -5 3 -10 -2 -10 -8 0 -15 -14 -46 -92 -25 -61 -41
-228 -26 -274 4 -11 9 -35 12 -51 9 -59 66 -159 119 -212 50 -49 159 -113 218
-128 36 -8 228 -8 273 1 75 15 227 80 227 98 0 4 6 8 13 8 17 0 167 157 167
174 0 8 7 16 15 20 8 3 15 15 15 26 0 11 4 20 8 20 5 0 19 33 33 73 32 96 34
251 4 345 -11 34 -23 62 -26 62 -4 0 -10 11 -13 25 -8 33 -125 149 -172 171
-22 10 -41 21 -44 24 -5 6 -36 21 -55 26 -110 28 -226 31 -302 9z"/>
</g>
</svg>
