<svg width="137" height="62" viewBox="0 0 137 62" fill="none" xmlns="http://www.w3.org/2000/svg">
<path d="M0.625744 34.8198C0.434647 34.8337 0.281769 34.7851 0.167111 34.6739C0.0507151 34.5627 -0.0048768 34.4133 0.000335054 34.2222L0.938448 10.283C0.941922 10.0936 1.00446 9.93378 1.12607 9.80348C1.25115 9.67493 1.4075 9.60196 1.5986 9.58807L5.84443 9.22672C6.15366 9.20413 6.38993 9.32748 6.55323 9.59501L13.6342 22.3742C13.6846 22.4628 13.735 22.5045 13.7871 22.4993C13.8566 22.4958 13.907 22.4072 13.94 22.2352L14.3917 9.15723C14.423 8.72292 14.6436 8.48839 15.0518 8.45538L19.4714 8.08014C19.6607 8.06624 19.8067 8.11488 19.9092 8.22606C20.0151 8.33725 20.0655 8.48839 20.0621 8.67775L19.1656 32.6101C19.1274 33.0461 18.9085 33.2806 18.5055 33.3119L14.2597 33.6732C13.9487 33.6976 13.7124 33.5725 13.5509 33.298L6.45594 20.3451C6.40035 20.2339 6.33781 20.1957 6.26832 20.227C6.19883 20.2548 6.15714 20.3295 6.14324 20.4493L5.67766 33.7427C5.67244 33.9338 5.61512 34.0954 5.50393 34.2292C5.39275 34.3595 5.24161 34.4307 5.05225 34.4446L0.625744 34.8198Z" fill="white"/>
<path d="M32.2788 14.2283C32.2823 14.0337 32.3414 13.8721 32.4525 13.7419C32.5637 13.6133 32.7131 13.5403 32.9042 13.5264L37.4002 13.1442C37.5844 13.1303 37.7355 13.179 37.8519 13.2902C37.9718 13.3979 38.0291 13.5508 38.0256 13.7488L37.3585 31.0796C37.3203 31.5156 37.1032 31.7519 36.7053 31.7884L32.2024 32.1636C32.0113 32.1775 31.8636 32.1289 31.7576 32.0177C31.6552 31.9065 31.6065 31.7536 31.6117 31.559L31.6465 30.6626C31.636 30.548 31.6065 30.4802 31.5561 30.4611C31.504 30.4385 31.4345 30.4802 31.3477 30.5862C30.3609 31.9621 28.9051 32.7299 26.9837 32.8863C25.4132 33.0218 24.1242 32.6691 23.1201 31.8301C22.1142 30.9927 21.5426 29.7315 21.4037 28.0498C21.3568 27.5217 21.3446 27.1117 21.3689 26.8198L21.8275 15.1039C21.831 14.9093 21.8866 14.7495 21.9943 14.6244C22.1055 14.4958 22.2549 14.4211 22.446 14.402L26.942 14.0268C27.1366 14.0094 27.2912 14.0546 27.4076 14.1657C27.5222 14.2769 27.5778 14.4298 27.5744 14.6244L27.1435 24.9784V25.4439C27.2026 26.1527 27.4302 26.6948 27.8245 27.07C28.2171 27.4418 28.7348 27.5981 29.3741 27.5425C30.0169 27.4922 30.5589 27.2437 31.0002 26.799C31.4397 26.3543 31.7264 25.7949 31.8619 25.1173L32.2788 14.2283Z" fill="white"/>
<path d="M60.4543 10.9269C62.0751 10.7931 63.3589 11.1458 64.304 11.9831C65.2491 12.8222 65.7911 14.0748 65.93 15.7425C65.9752 16.3124 65.9874 16.7432 65.9648 17.0351L65.5062 28.7163C65.4732 29.1523 65.256 29.3869 64.853 29.4181L60.3917 29.7934C60.2006 29.8125 60.0529 29.7656 59.947 29.6544C59.8445 29.5398 59.7958 29.3869 59.801 29.1958L60.1832 18.8209C60.1971 18.6959 60.1919 18.5152 60.1693 18.2789C60.1138 17.6118 59.8983 17.0907 59.5231 16.7154C59.1478 16.3402 58.6614 16.1769 58.0638 16.222C57.4002 16.2776 56.8477 16.5764 56.403 17.1184C55.9583 17.6605 55.722 18.3536 55.6942 19.1962L55.3051 29.571C55.2668 30.0071 55.0497 30.2433 54.6518 30.2798L50.1489 30.6551C49.9578 30.669 49.8101 30.6203 49.7042 30.5091C49.6017 30.398 49.553 30.2451 49.5582 30.0505L49.9474 19.6757C49.9648 19.5558 49.9648 19.389 49.9474 19.1753C49.8866 18.4857 49.6555 17.9523 49.2525 17.5771C48.8494 17.2018 48.3509 17.0403 47.7585 17.0907C47.1365 17.1428 46.6119 17.3895 46.181 17.8342C45.7502 18.2789 45.4792 18.8418 45.368 19.5228L44.958 30.4396C44.925 30.8757 44.7044 31.112 44.2979 31.1484L39.8019 31.5237C39.6108 31.5428 39.4648 31.4959 39.3641 31.3847C39.2616 31.2701 39.2129 31.1172 39.2182 30.9261L39.8783 13.5884C39.8818 13.3938 39.9374 13.2322 40.0451 13.1019C40.1563 12.9734 40.3091 12.9004 40.5037 12.8865L44.9997 12.5113C45.1891 12.4939 45.3419 12.5391 45.4583 12.6502C45.573 12.758 45.6286 12.9108 45.6251 13.1089L45.5556 14.3666L45.5626 14.4361C45.5661 14.5334 45.5973 14.5803 45.6529 14.5751C45.712 14.5716 45.778 14.5161 45.8475 14.4083C46.7873 12.8292 48.2675 11.9536 50.2879 11.7816C51.4275 11.6896 52.416 11.865 53.2551 12.3097C54.0977 12.751 54.7422 13.4424 55.1869 14.3875C55.2147 14.4813 55.2564 14.5195 55.312 14.5056C55.3711 14.4883 55.4336 14.4257 55.4996 14.318C56.5229 12.2524 58.175 11.1215 60.4543 10.9269Z" fill="white"/>
<path d="M71.0826 9.10073C70.174 9.17544 69.4235 8.9687 68.8311 8.48227C68.2422 7.99237 67.9103 7.30442 67.8374 6.41843C67.7436 5.30311 68.0285 4.3511 68.6921 3.56239C69.3592 2.77542 70.2504 2.3359 71.3675 2.24209C72.2986 2.16391 73.0526 2.35848 73.6328 2.8258C74.2113 3.29486 74.5362 3.95675 74.6057 4.81321C74.703 5.97717 74.4181 6.95871 73.751 7.75958C73.0873 8.55698 72.1979 9.00345 71.0826 9.10073ZM68.0945 29.1486C67.9034 29.1625 67.7505 29.1138 67.6359 29.0026C67.5195 28.8914 67.4639 28.742 67.4691 28.5509L68.1362 11.2132C68.1675 10.7789 68.3881 10.5444 68.7963 10.5114L73.2923 10.1292C73.4817 10.1153 73.6276 10.1639 73.7301 10.2751C73.8361 10.3828 73.8847 10.5357 73.876 10.7337L73.2159 28.0645C73.2107 28.2591 73.1534 28.4224 73.0422 28.5509C72.9345 28.6812 72.7851 28.7525 72.5905 28.7664L68.0945 29.1486Z" fill="white"/>
<path d="M86.9646 3.05539C86.9681 2.86082 87.0237 2.70099 87.1314 2.57591C87.2426 2.44735 87.392 2.37439 87.5831 2.36049L92.1138 1.9783C92.3084 1.96092 92.4561 2.00609 92.5586 2.11728C92.6645 2.22846 92.7149 2.3796 92.7114 2.56896L91.7664 26.5082C91.7612 26.6993 91.7038 26.8591 91.5926 26.9877C91.4849 27.118 91.3373 27.1927 91.1479 27.2101L86.6519 27.5853C86.4608 27.6044 86.3062 27.5575 86.1863 27.4463C86.0699 27.3351 86.0161 27.1823 86.0265 26.9877L86.0613 26.133C86.0752 26.0079 86.0491 25.9384 85.9848 25.9245C85.924 25.9071 85.8632 25.9453 85.8041 26.0426C84.8348 27.3907 83.4936 28.1377 81.7807 28.2802C80.2797 28.4105 78.9107 28.0127 77.6738 27.085C76.4369 26.1538 75.6187 24.8943 75.2208 23.3047C75.0402 22.5508 74.9238 21.8767 74.8734 21.2826C74.8352 20.8066 74.8247 20.1134 74.8386 19.2048C74.8942 17.5701 75.1965 16.0344 75.749 14.5977C76.3361 13.0602 77.2395 11.7816 78.4591 10.7618C79.6821 9.73857 81.0302 9.16355 82.5034 9.03846C84.2858 8.8908 85.5818 9.3338 86.3879 10.3657C86.4434 10.4543 86.506 10.4839 86.5755 10.4561C86.645 10.4283 86.6745 10.3553 86.6658 10.2337L86.9646 3.05539ZM85.6235 21.3451C86.0543 20.4973 86.294 19.5002 86.3462 18.3501C86.3409 17.7716 86.3288 17.3738 86.3114 17.1549C86.2454 16.3731 86.0856 15.7286 85.8319 15.2231C85.3768 14.45 84.7236 14.0973 83.8723 14.1668C82.9637 14.2467 82.2602 14.7227 81.7598 15.5983C81.3186 16.3818 81.0615 17.4467 80.9885 18.7948C80.9781 19.2726 80.9833 19.6061 81.0024 19.7955C81.0667 20.5599 81.2265 21.2044 81.4819 21.7273C81.8884 22.5855 82.5676 22.9747 83.5179 22.8947C84.4248 22.8218 85.1266 22.3041 85.6235 21.3451Z" fill="white"/>
<path d="M97.5555 6.87545C96.6469 6.95015 95.8964 6.74342 95.304 6.25699C94.7151 5.76709 94.3832 5.07914 94.3103 4.19315C94.2165 3.07783 94.5014 2.12582 95.165 1.33711C95.8321 0.55014 96.7233 0.110617 97.8404 0.0168053C98.7715 -0.0613706 99.5255 0.133201 100.106 0.60052C100.684 1.06958 101.009 1.73147 101.079 2.58793C101.176 3.75188 100.891 4.73343 100.224 5.5343C99.5602 6.3317 98.6708 6.77817 97.5555 6.87545ZM94.5674 26.9233C94.3763 26.9372 94.2234 26.8885 94.1088 26.7773C93.9924 26.6662 93.9368 26.5168 93.942 26.3257L94.6091 8.98794C94.6404 8.55363 94.861 8.3191 95.2692 8.2861L99.7652 7.9039C99.9546 7.89 100.101 7.93865 100.203 8.04983C100.309 8.15754 100.358 8.31042 100.349 8.50846L99.6888 25.8392C99.6836 26.0338 99.6263 26.1971 99.5151 26.3257C99.4074 26.456 99.258 26.5272 99.0634 26.5411L94.5674 26.9233Z" fill="white"/>
<path d="M113.166 7.43158C113.198 6.99206 113.418 6.7558 113.826 6.72279L118.315 6.34754C118.505 6.33017 118.651 6.37534 118.753 6.48652C118.859 6.59771 118.91 6.75058 118.906 6.94516L118.239 24.2829C118.234 24.474 118.176 24.6338 118.065 24.7624C117.958 24.8926 117.81 24.9673 117.621 24.9847L113.125 25.36C112.933 25.3791 112.779 25.3322 112.659 25.221C112.543 25.1098 112.489 24.9569 112.499 24.7624L112.534 23.9076C112.548 23.7825 112.522 23.7131 112.457 23.6992C112.397 23.6818 112.336 23.72 112.277 23.8173C111.307 25.1654 109.966 25.9124 108.253 26.0549C106.752 26.1852 105.383 25.7873 104.146 24.8596C102.91 23.9285 102.091 22.669 101.693 21.0794C101.513 20.3254 101.396 19.6514 101.346 19.0572C101.308 18.5812 101.297 17.8881 101.311 16.9795C101.367 15.3447 101.669 13.809 102.222 12.3723C102.809 10.8348 103.712 9.55624 104.932 8.53647C106.155 7.51324 107.503 6.93821 108.976 6.81313C110.758 6.66546 112.054 7.10846 112.861 8.14038C112.916 8.22898 112.979 8.25851 113.048 8.23072C113.118 8.20292 113.147 8.12996 113.138 8.00835L113.166 7.43158ZM112.096 19.1198C112.527 18.272 112.767 17.2748 112.819 16.1248C112.814 15.5463 112.801 15.1484 112.784 14.9295C112.718 14.1478 112.558 13.5033 112.305 12.9977C111.849 12.2246 111.196 11.872 110.345 11.9415C109.436 12.0214 108.733 12.4974 108.232 13.373C107.791 14.1565 107.534 15.2214 107.461 16.5695C107.451 17.0472 107.456 17.3808 107.475 17.5702C107.539 18.3345 107.699 18.9791 107.955 19.502C108.361 20.3602 109.04 20.7493 109.991 20.6694C110.897 20.5964 111.599 20.0787 112.096 19.1198Z" fill="white"/>
<path d="M130.879 5.01055C132.523 4.87157 133.874 5.24334 134.93 6.12239C135.99 7.00317 136.593 8.30089 136.737 10.0138C136.754 10.2275 136.761 10.5958 136.758 11.1187L136.292 22.7652C136.287 22.9563 136.23 23.1161 136.119 23.2447C136.011 23.375 135.863 23.4497 135.674 23.4671L131.178 23.8423C130.987 23.8614 130.832 23.8145 130.712 23.7033C130.596 23.5921 130.542 23.4393 130.552 23.2447L130.976 12.9046V12.4321C130.916 11.7424 130.681 11.2004 130.275 10.806C129.871 10.4082 129.35 10.2344 128.711 10.2848C128.02 10.3456 127.439 10.6531 126.967 11.209C126.498 11.7615 126.253 12.4581 126.23 13.3007L125.841 23.6408C125.808 24.0768 125.587 24.3131 125.181 24.3496L120.685 24.7248C120.494 24.7439 120.348 24.697 120.247 24.5858C120.145 24.4712 120.096 24.3183 120.101 24.1272L120.761 6.78949C120.765 6.59492 120.82 6.43335 120.928 6.30306C121.039 6.1745 121.192 6.10154 121.387 6.08764L125.883 5.7124C126.072 5.69502 126.225 5.74019 126.341 5.85138C126.456 5.95909 126.512 6.11196 126.508 6.31001L126.453 7.31761C126.439 7.43922 126.461 7.50871 126.522 7.52608C126.581 7.54519 126.644 7.5035 126.71 7.401C127.663 5.96082 129.053 5.16343 130.879 5.01055Z" fill="white"/>
<path d="M40.5044 61.9841C39.5767 62.064 38.7967 61.8433 38.1626 61.3239C37.532 60.801 37.1793 60.1078 37.1064 59.2462C37.0873 59.0377 37.0873 58.8848 37.1064 58.7875C37.1237 57.8477 37.5094 57.0121 38.2599 56.2789C39.0104 55.5476 39.8391 55.1428 40.7476 55.0629C41.6041 54.9934 42.3702 55.2227 43.0478 55.7508C43.7288 56.2789 44.104 56.9738 44.1735 57.8355C44.2604 58.8779 43.9442 59.8073 43.2215 60.6221C42.5023 61.4386 41.5972 61.892 40.5044 61.9841Z" fill="#5E17EB"/>
<path d="M46.3654 61.2755C46.1743 61.2946 46.0197 61.2477 45.8999 61.1365C45.7835 61.0253 45.7296 60.8725 45.74 60.6779L46.6782 36.7456C46.6816 36.551 46.7442 36.3895 46.8658 36.2592C46.9909 36.1306 47.1472 36.0576 47.3383 36.0437L55.9342 35.321C58.4532 35.1091 60.5084 35.5538 62.0979 36.6553C63.6858 37.7532 64.5683 39.3358 64.7455 41.4014C64.7629 41.6151 64.7681 41.9625 64.7594 42.4438L64.405 51.8874C64.3442 53.4492 63.9116 54.8651 63.1056 56.1333C62.3029 57.398 61.1981 58.4125 59.7909 59.1769C58.382 59.9413 56.775 60.3999 54.9683 60.5528L46.3654 61.2755ZM51.6675 55.4801C51.6814 55.6468 51.7596 55.7233 51.9038 55.7094L55.3991 55.4175C56.3303 55.3393 57.0982 54.9346 57.7062 54.2014C58.3125 53.4701 58.6478 52.5233 58.7138 51.3593L58.9987 43.9378C59.0022 43.771 58.9935 43.5469 58.9709 43.2637C58.891 42.31 58.5783 41.5803 58.0328 41.0748C57.4908 40.571 56.7889 40.3521 55.9273 40.4216L52.4667 40.7135C52.4198 40.7187 52.3694 40.7465 52.3138 40.7968C52.2582 40.849 52.2321 40.9115 52.2373 40.9845L51.6675 55.4801Z" fill="#5E17EB"/>
<path d="M84.0258 37.4087C84.0206 37.6033 83.958 37.7666 83.8381 37.8952C83.7165 38.0254 83.5619 38.1001 83.3726 38.1175L72.7684 39.007C72.7215 39.0122 72.6711 39.04 72.6155 39.0904C72.5599 39.1425 72.5339 39.205 72.5391 39.278L72.3723 43.5725C72.3862 43.7393 72.4627 43.8157 72.6016 43.8018L79.2796 43.2389C79.469 43.225 79.6219 43.2737 79.7382 43.3849C79.8529 43.496 79.9068 43.6454 79.8981 43.8296L79.7521 47.6168C79.7139 48.0528 79.4916 48.2891 79.085 48.3256L72.414 48.8815C72.2698 48.8954 72.1812 48.9892 72.15 49.1595L71.9693 53.7736C71.9832 53.9404 72.0614 54.0168 72.2055 54.0029L82.8027 53.1134C82.9921 53.0961 83.138 53.1412 83.2405 53.2524C83.3413 53.3636 83.3882 53.5147 83.3795 53.7041L83.2405 57.526C83.2353 57.7171 83.178 57.8787 83.0668 58.0125C82.9591 58.1428 82.8097 58.214 82.6151 58.2279L66.6672 59.569C66.4761 59.5881 66.3215 59.5412 66.2016 59.4301C66.0852 59.3189 66.0314 59.166 66.0418 58.9714L66.9799 35.0391C66.9834 34.8446 67.0459 34.683 67.1675 34.5527C67.2926 34.4241 67.449 34.3512 67.6401 34.3373L83.588 32.9961C83.7773 32.9822 83.9233 33.0309 84.0258 33.142C84.1317 33.2498 84.1821 33.3992 84.1786 33.5937L84.0258 37.4087Z" fill="#5E17EB"/>
<path d="M91.7541 57.4584C91.3685 57.4914 91.1513 57.3315 91.1009 56.9789L85.1109 33.5817L85.097 33.4357C85.064 33.0605 85.2499 32.8572 85.6529 32.8242L90.545 32.4142C90.9237 32.383 91.1426 32.5515 91.1982 32.9215L94.5268 48.5984C94.558 48.6957 94.6032 48.7426 94.6588 48.7374C94.7179 48.7339 94.7578 48.6801 94.7769 48.5776L99.266 32.2474C99.3719 31.8583 99.6065 31.6498 99.9678 31.622L104.742 31.219C105.075 31.1912 105.253 31.3093 105.277 31.5734C105.28 31.6394 105.266 31.7454 105.235 31.893L97.3481 56.4508C97.2542 56.8173 97.0076 57.0188 96.6045 57.0553L91.7541 57.4584Z" fill="#5E17EB"/>
</svg>
